<svg xmlns="http://www.w3.org/2000/svg" width="976" height="1056" viewBox="0 0 976 1056">
<g>
<path d="M 603.43 1043.03 C601.20,1044.11 598.05,1044.92 596.43,1044.83 C587.59,1044.30 584.37,1043.70 582.06,1042.15 C580.65,1041.20 578.16,1039.77 576.52,1038.96 C571.05,1036.28 559.00,1022.18 559.00,1018.48 C559.00,1017.66 558.55,1017.00 558.00,1017.00 C557.45,1017.00 557.00,1015.90 557.00,1014.56 C557.00,1013.22 556.55,1011.84 556.00,1011.50 C555.45,1011.16 555.00,1009.87 555.00,1008.64 C555.00,1007.41 554.53,1005.93 553.95,1005.35 C553.27,1004.67 553.06,998.59 553.35,987.90 C553.82,970.68 554.61,963.13 556.10,961.55 C556.60,961.03 557.00,959.37 557.00,957.86 C557.00,956.35 557.45,954.84 558.00,954.50 C558.55,954.16 559.00,952.65 559.00,951.14 C559.00,949.63 559.36,947.97 559.80,947.45 C560.23,946.93 561.17,944.70 561.87,942.50 C563.73,936.70 568.22,925.66 569.18,924.55 C569.63,924.03 570.00,922.79 570.00,921.80 C570.00,920.81 570.45,920.00 571.00,920.00 C571.55,920.00 572.00,919.41 572.00,918.69 C572.00,916.73 594.55,872.55 597.24,869.24 C597.80,868.54 598.99,866.63 599.88,864.99 C606.74,852.36 608.55,849.18 611.79,844.18 C613.81,841.05 616.53,836.47 617.85,834.00 C619.17,831.53 620.86,828.79 621.62,827.92 C622.38,827.05 623.00,826.02 623.00,825.63 C623.00,824.71 626.81,819.23 629.75,815.92 C632.23,813.14 634.44,807.00 632.97,807.00 C632.48,807.00 629.70,809.21 626.79,811.90 C623.88,814.60 619.04,818.98 616.02,821.65 C613.01,824.32 603.90,832.69 595.77,840.25 C587.64,847.81 579.28,855.23 577.19,856.75 C573.61,859.35 560.38,870.94 553.52,877.50 C544.06,886.54 526.85,901.75 523.53,904.00 C519.98,906.40 496.68,927.60 478.00,945.43 C473.33,949.88 468.23,954.43 466.67,955.52 C465.12,956.61 462.79,958.46 461.49,959.64 C457.17,963.57 447.54,970.69 444.30,972.35 C442.35,973.35 438.70,974.00 434.97,974.00 C429.06,974.00 428.70,973.85 424.82,969.75 C418.49,963.06 413.25,954.38 411.09,947.00 C410.36,944.53 409.41,941.60 408.96,940.50 C407.83,937.69 406.65,928.43 406.68,922.50 C406.71,914.72 408.20,901.99 409.15,901.41 C409.62,901.12 410.00,899.78 410.00,898.43 C410.00,897.08 410.40,895.19 410.88,894.24 C411.37,893.28 412.22,891.38 412.78,890.00 C415.54,883.18 419.20,876.08 420.52,874.98 C421.34,874.31 422.00,873.11 422.00,872.33 C422.00,870.55 427.62,861.70 433.80,853.77 C443.85,840.87 454.70,829.84 468.01,819.00 C470.37,817.08 475.88,812.35 480.24,808.50 C484.61,804.65 489.16,800.83 490.35,800.00 C493.04,798.14 496.03,795.67 501.93,790.45 C504.44,788.23 508.98,784.45 512.00,782.05 C515.03,779.65 519.81,775.39 522.62,772.59 C525.44,769.79 530.39,765.20 533.62,762.39 C547.07,750.70 559.18,739.36 562.07,735.77 C563.76,733.66 566.87,730.84 568.98,729.51 C571.08,728.19 573.49,725.72 574.34,724.03 L 575.87 720.95 L 557.19 721.62 C535.13,722.41 511.10,720.77 503.68,717.96 C496.91,715.40 489.04,709.02 482.34,700.66 C479.18,696.72 476.29,693.28 475.91,693.00 C475.54,692.72 474.39,691.11 473.36,689.41 C468.96,682.12 462.36,673.08 460.66,672.02 C459.14,671.07 457.66,671.57 451.99,674.94 C448.23,677.17 444.47,679.00 443.63,679.00 C442.80,679.00 441.83,679.47 441.47,680.05 C440.48,681.65 430.19,686.04 424.00,687.51 C420.98,688.23 415.12,689.75 411.00,690.89 C406.88,692.03 400.80,693.43 397.50,694.00 C394.20,694.57 389.70,695.44 387.50,695.95 C385.30,696.45 378.77,697.37 373.00,697.99 C367.23,698.61 358.00,699.78 352.50,700.60 C340.61,702.36 277.36,702.10 255.00,700.20 C226.15,697.74 185.72,691.80 170.50,687.78 C164.27,686.14 159.68,684.79 157.50,683.96 C156.40,683.54 153.93,682.66 152.00,682.00 C138.01,677.19 109.00,661.53 109.00,658.80 C109.00,658.36 108.55,658.00 108.01,658.00 C106.30,658.00 98.77,651.77 90.98,643.93 C83.09,635.97 74.00,625.58 74.00,624.50 C74.00,624.15 72.99,622.43 71.75,620.68 C70.51,618.93 69.05,616.77 68.50,615.87 C67.95,614.97 66.13,612.27 64.45,609.87 C62.78,607.47 59.70,601.45 57.61,596.50 C55.53,591.55 53.41,586.72 52.91,585.76 C52.41,584.81 52.00,583.15 52.00,582.07 C52.00,581.00 51.55,579.84 51.00,579.50 C50.45,579.16 50.00,577.81 50.00,576.50 C50.00,575.19 49.55,573.84 49.00,573.50 C48.45,573.16 48.00,571.81 48.00,570.50 C48.00,569.19 47.55,567.84 47.00,567.50 C46.45,567.16 46.00,565.81 46.00,564.50 C46.00,563.19 45.55,561.84 45.00,561.50 C44.45,561.16 44.00,559.36 44.00,557.50 C44.00,555.64 43.60,553.87 43.12,553.58 C41.48,552.56 40.70,540.57 40.65,515.50 C40.59,490.63 41.52,475.42 43.15,474.41 C43.62,474.12 44.00,472.36 44.00,470.50 C44.00,468.64 44.45,466.84 45.00,466.50 C45.55,466.16 46.00,464.59 46.00,463.00 C46.00,461.41 46.45,459.84 47.00,459.50 C47.55,459.16 48.00,457.59 48.00,456.00 C48.00,454.41 48.45,452.84 49.00,452.50 C49.55,452.16 50.00,450.65 50.00,449.14 C50.00,447.63 50.38,445.97 50.84,445.45 C51.31,444.93 52.48,441.89 53.45,438.71 C54.42,435.52 56.52,430.23 58.11,426.94 C59.70,423.66 61.00,420.71 61.00,420.39 C61.00,420.07 61.83,418.61 62.85,417.15 C63.86,415.69 66.05,412.02 67.70,409.00 C75.24,395.21 78.29,390.02 82.90,383.15 C84.88,380.20 86.99,376.94 87.59,375.90 C88.19,374.86 89.43,373.19 90.34,372.18 C91.25,371.17 92.00,369.97 92.00,369.52 C92.00,369.06 93.24,367.08 94.75,365.11 C96.26,363.14 97.95,360.81 98.50,359.93 C99.05,359.05 101.07,356.06 103.00,353.28 C104.93,350.51 109.10,344.47 112.27,339.87 C115.45,335.27 120.05,328.80 122.49,325.50 C124.93,322.20 128.02,317.92 129.36,316.00 C130.70,314.08 133.75,310.18 136.15,307.35 C149.15,291.98 152.11,287.68 157.08,277.00 C166.12,257.54 168.00,253.24 168.00,252.00 C168.00,251.43 168.40,250.19 168.88,249.24 C169.37,248.28 170.27,246.26 170.88,244.75 C171.50,243.24 172.43,240.99 172.96,239.75 C173.49,238.51 174.66,235.02 175.56,232.00 C176.46,228.98 177.87,224.70 178.69,222.50 C179.51,220.30 180.84,216.48 181.64,214.00 C183.13,209.40 184.54,205.85 186.12,202.76 C186.60,201.81 187.00,200.15 187.00,199.07 C187.00,198.00 187.45,196.84 188.00,196.50 C188.55,196.16 189.00,194.81 189.00,193.50 C189.00,192.19 189.45,190.84 190.00,190.50 C190.55,190.16 191.00,189.00 191.00,187.93 C191.00,186.85 191.40,185.19 191.88,184.24 C193.50,181.06 194.74,177.60 198.43,166.00 C200.44,159.68 202.52,153.49 203.04,152.25 C203.57,151.01 204.50,148.76 205.12,147.25 C205.73,145.74 206.63,143.72 207.12,142.76 C207.60,141.81 208.00,140.34 208.00,139.50 C208.00,138.66 208.40,137.19 208.88,136.24 C209.37,135.28 210.27,133.26 210.88,131.75 L 213.12 126.25 C213.73,124.74 214.63,122.72 215.12,121.76 C215.60,120.81 216.00,119.40 216.00,118.64 C216.00,117.31 217.50,113.59 222.62,102.22 C223.93,99.32 225.00,96.71 225.00,96.43 C225.00,95.63 229.08,89.99 233.62,84.50 C238.29,78.86 242.65,77.00 251.25,77.00 C260.12,77.00 271.32,82.27 278.13,89.65 C284.94,97.03 289.67,108.72 290.42,120.00 C290.66,123.57 291.17,129.09 291.57,132.25 C292.05,136.15 291.93,138.00 291.19,138.00 C290.50,138.00 290.12,140.90 290.16,146.06 C290.19,151.39 289.30,158.08 287.53,165.81 C281.58,191.80 278.75,203.60 278.01,205.50 C277.32,207.26 276.29,210.83 274.55,217.50 C274.26,218.60 274.04,219.73 274.07,220.00 C274.09,220.27 273.43,222.13 272.59,224.12 C271.76,226.12 271.35,228.02 271.68,228.35 C272.01,228.68 271.84,229.53 271.29,230.23 C269.83,232.09 269.06,235.92 270.02,236.51 C270.48,236.80 273.42,233.08 276.55,228.26 C279.69,223.44 284.45,216.27 287.13,212.33 C289.81,208.38 292.00,204.90 292.00,204.60 C292.00,204.29 293.68,201.44 295.74,198.27 C297.80,195.10 299.93,191.74 300.49,190.81 C301.05,189.89 303.08,186.52 305.00,183.34 C311.51,172.57 312.76,170.38 318.04,160.43 C320.93,154.97 323.63,150.05 324.02,149.50 C325.24,147.78 330.08,138.93 335.77,128.00 C338.78,122.22 341.58,117.05 342.00,116.50 C342.90,115.31 349.30,103.37 356.47,89.50 C362.59,77.65 372.05,61.39 376.69,54.76 C378.51,52.15 380.00,49.72 380.00,49.36 C380.00,47.98 387.11,38.25 392.31,32.50 L 397.74 26.50 L 409.41 26.61 C419.56,26.71 421.69,27.03 425.79,29.10 C432.01,32.23 441.49,42.04 445.00,48.99 C451.05,60.98 452.09,66.07 452.09,83.65 C452.09,99.05 450.74,109.69 448.06,115.50 C447.55,116.60 445.57,121.78 443.66,127.00 C441.74,132.23 439.61,137.85 438.91,139.50 C438.22,141.15 437.53,143.58 437.37,144.89 C436.94,148.68 411.75,198.65 401.03,217.00 C398.94,220.57 394.69,228.34 391.60,234.25 C388.50,240.17 385.08,246.47 383.99,248.25 C382.90,250.04 382.01,252.06 382.00,252.75 C382.00,255.52 385.07,253.60 393.21,245.75 C401.19,238.05 410.89,229.63 442.00,203.37 C448.88,197.56 458.74,189.14 463.92,184.66 C469.10,180.17 475.52,174.70 478.19,172.50 C480.85,170.30 496.61,156.12 513.19,141.00 C551.85,105.75 550.51,106.92 557.20,102.64 C562.01,99.57 563.78,99.00 568.49,99.00 C577.45,99.00 585.01,105.09 590.71,116.89 C594.35,124.43 594.93,126.26 597.65,138.50 C599.44,146.59 599.18,164.65 597.25,165.84 C596.61,166.24 595.88,168.80 595.63,171.53 C594.98,178.69 589.13,193.48 582.92,203.69 C574.29,217.88 551.01,245.70 543.53,250.76 C541.31,252.26 534.71,257.93 528.85,263.36 C522.99,268.79 517.06,273.98 515.67,274.89 C514.28,275.80 512.25,277.68 511.16,279.07 C510.07,280.45 507.56,282.46 505.59,283.52 C503.62,284.59 502.00,285.73 502.00,286.07 C502.00,286.41 495.89,292.05 488.41,298.60 C450.98,331.40 430.66,350.47 431.26,352.27 C431.46,352.88 441.76,353.18 458.70,353.07 C476.82,352.95 486.03,353.24 486.47,353.94 C486.82,354.53 488.52,355.00 490.24,355.00 C494.66,355.00 504.66,358.73 510.18,362.44 C516.50,366.69 523.88,375.16 534.94,390.86 C540.03,398.09 544.62,404.27 545.14,404.59 C545.66,404.91 547.26,404.35 548.70,403.34 C552.27,400.82 558.08,397.30 560.53,396.16 C561.65,395.64 564.99,394.04 567.97,392.61 C570.94,391.17 574.16,390.00 575.13,390.00 C576.09,390.00 577.16,389.55 577.50,389.00 C577.84,388.45 579.19,388.00 580.50,388.00 C581.81,388.00 583.16,387.55 583.50,387.00 C583.84,386.45 585.19,386.00 586.50,386.00 C587.81,386.00 589.16,385.55 589.50,385.00 C589.84,384.45 591.41,384.00 593.00,384.00 C594.59,384.00 596.13,383.60 596.43,383.11 C596.74,382.61 598.68,381.95 600.74,381.63 C602.81,381.32 607.42,380.58 611.00,379.98 C617.30,378.95 624.22,378.05 642.00,375.97 C662.50,373.57 691.33,372.78 717.00,373.93 C750.01,375.40 762.85,376.83 788.75,381.96 C791.64,382.53 796.14,383.42 798.75,383.94 C804.00,384.97 809.66,386.34 815.00,387.87 C816.92,388.42 819.62,389.16 821.00,389.52 C822.38,389.87 824.51,390.58 825.75,391.08 C830.28,392.93 832.62,393.85 838.50,396.11 C841.80,397.38 847.65,400.12 851.50,402.20 C855.35,404.29 860.83,407.16 863.68,408.58 C874.00,413.73 896.14,434.09 907.08,448.50 C920.57,466.27 933.93,494.37 938.07,513.72 C938.64,516.35 939.53,520.30 940.07,522.50 C944.45,540.62 945.89,584.99 942.43,595.66 C941.69,597.94 940.81,603.33 940.48,607.64 C940.15,611.94 939.48,615.70 939.00,616.00 C938.52,616.30 938.16,617.88 938.20,619.52 C938.31,623.35 932.47,644.58 928.99,653.00 C922.11,669.63 916.68,681.64 915.37,683.11 C914.58,684.00 913.74,685.77 913.49,687.04 C913.25,688.31 912.63,689.61 912.11,689.93 C911.60,690.25 908.89,694.92 906.10,700.31 C903.31,705.70 897.53,715.45 893.26,721.97 C888.99,728.50 883.56,736.91 881.20,740.67 C875.80,749.24 867.28,761.39 859.50,771.61 C847.53,787.34 844.62,791.94 840.96,800.89 C839.25,805.08 836.38,811.65 834.58,815.50 C832.78,819.35 830.55,824.75 829.63,827.50 C828.71,830.25 825.10,841.05 821.61,851.50 C818.12,861.95 813.67,874.35 811.71,879.06 C809.76,883.77 807.40,890.30 806.47,893.56 C803.11,905.39 793.78,931.05 791.60,934.50 C790.90,935.60 789.77,938.74 789.09,941.49 C788.41,944.23 787.46,946.71 786.99,947.01 C786.51,947.30 785.90,948.78 785.63,950.28 C785.35,951.79 783.92,956.05 782.45,959.76 C774.13,980.65 765.62,992.62 757.53,994.78 C743.18,998.62 728.64,991.98 718.22,976.82 C716.45,974.25 715.00,971.46 715.00,970.63 C715.00,969.80 714.55,968.84 714.00,968.50 C713.45,968.16 713.00,967.00 713.00,965.93 C713.00,964.85 712.59,963.19 712.08,962.24 C711.57,961.28 710.60,956.59 709.93,951.81 C708.70,943.16 708.98,935.61 711.09,920.00 C711.64,915.88 712.34,910.03 712.64,907.00 C712.93,903.97 713.59,901.07 714.09,900.55 C714.59,900.03 715.00,897.69 715.00,895.36 C715.00,893.03 715.45,890.84 716.00,890.50 C716.55,890.16 717.00,888.59 717.00,887.00 C717.00,885.41 717.45,883.84 718.00,883.50 C718.55,883.16 719.00,881.59 719.00,880.00 C719.00,878.41 719.45,876.84 720.00,876.50 C720.55,876.16 721.00,874.81 721.00,873.50 C721.00,872.19 721.45,870.84 722.00,870.50 C722.55,870.16 723.00,868.55 723.00,866.93 C723.00,865.30 723.42,863.19 723.94,862.24 C725.84,858.72 729.86,843.80 729.30,842.33 C728.84,841.14 728.22,841.43 726.39,843.66 C725.12,845.22 724.06,846.82 724.04,847.22 C724.02,847.61 720.17,853.81 715.50,861.00 C710.83,868.19 707.00,874.24 707.00,874.45 C707.00,874.67 704.75,878.47 702.00,882.90 C699.25,887.34 697.00,891.22 697.00,891.53 C697.00,891.84 695.51,894.44 693.70,897.30 C691.88,900.16 687.97,906.78 685.00,912.00 C682.03,917.22 679.01,921.95 678.29,922.50 C677.57,923.05 676.77,924.56 676.53,925.85 C676.28,927.15 674.77,930.52 673.18,933.35 C669.47,939.95 666.89,944.75 649.98,976.50 C647.64,980.90 645.41,984.72 645.04,985.00 C644.67,985.28 643.29,987.75 641.99,990.50 C638.52,997.79 627.55,1016.38 621.83,1024.66 C615.69,1033.54 608.77,1040.45 603.43,1043.03 ZM 266.50 690.93 C284.51,692.28 344.00,691.47 359.50,689.66 C396.23,685.37 421.50,678.99 440.00,669.33 C449.94,664.14 453.29,662.54 453.44,660.70 C453.51,659.79 452.80,658.83 451.72,657.35 C451.55,657.11 451.36,656.85 451.16,656.58 C446.39,649.93 440.29,636.53 437.93,627.50 C436.15,620.70 435.92,617.77 436.44,608.00 C436.77,601.67 437.66,592.22 438.41,587.00 C439.17,581.78 439.63,577.34 439.45,577.14 C439.27,576.95 436.50,578.36 433.31,580.29 C426.53,584.38 413.84,588.58 405.41,589.53 C388.77,591.40 366.80,578.25 357.04,560.56 C342.66,534.52 347.65,497.68 368.40,476.60 C376.18,468.71 383.03,464.29 396.00,458.78 C407.86,453.75 414.32,452.60 431.00,452.57 C447.75,452.53 455.65,454.27 468.79,460.91 C479.93,466.54 481.49,468.55 483.55,480.00 C486.99,499.05 494.59,516.32 503.55,525.42 C510.47,532.46 515.85,534.99 525.37,535.71 C531.41,536.17 533.24,535.92 536.68,534.16 C542.02,531.44 547.50,524.96 549.91,518.52 C554.90,505.17 559.38,464.67 557.24,452.20 C555.97,444.77 552.54,436.52 547.18,428.00 C541.36,418.75 527.85,398.68 525.30,395.50 C523.98,393.85 520.16,388.77 516.80,384.20 C513.45,379.64 508.89,374.35 506.68,372.46 C501.78,368.26 493.69,365.08 485.00,363.93 C476.85,362.85 432.05,362.85 422.00,363.93 C415.80,364.60 413.98,364.45 411.50,363.07 C404.94,359.42 405.34,358.96 451.07,317.51 C459.55,309.82 470.33,299.90 475.00,295.47 C479.67,291.03 485.75,285.63 488.49,283.45 C491.24,281.28 497.58,275.90 502.58,271.50 C507.59,267.10 516.34,259.67 522.04,255.00 C548.76,233.09 566.60,212.50 577.07,191.50 C590.24,165.09 591.44,143.36 580.92,121.33 C576.66,112.42 573.31,109.00 568.82,109.00 C562.97,109.00 555.63,114.47 535.41,133.86 C512.50,155.85 487.28,177.91 441.33,216.20 C428.49,226.89 417.13,236.59 413.00,240.38 C365.86,283.65 362.57,287.00 357.78,296.50 C353.75,304.50 345.01,317.91 342.45,320.04 C340.08,322.01 337.00,320.22 337.00,316.87 C337.00,312.81 352.37,282.85 382.35,228.50 C414.32,170.53 425.85,147.32 434.46,123.56 C440.68,106.41 442.19,98.84 442.35,84.00 C442.45,74.17 442.08,70.32 440.62,66.00 C435.50,50.90 426.96,40.29 417.77,37.62 C410.31,35.45 405.83,35.58 401.60,38.08 C394.43,42.30 381.07,63.39 358.23,106.50 C331.98,156.06 323.07,171.89 302.08,206.29 C292.97,221.22 266.06,262.93 262.67,267.37 C260.09,270.75 258.55,273.84 253.40,285.99 C249.83,294.42 243.02,299.82 241.37,295.52 C240.83,294.11 242.72,286.48 245.48,279.00 C246.18,277.08 247.52,272.80 248.45,269.50 C249.38,266.20 252.30,256.52 254.95,248.00 C268.31,204.97 276.93,171.84 278.99,155.60 C281.18,138.33 281.36,124.73 279.52,116.43 C277.14,105.68 274.23,100.36 267.19,93.84 C262.10,89.12 260.33,88.13 255.00,87.00 C249.31,85.79 248.45,85.84 245.31,87.53 C237.94,91.50 234.55,97.10 224.93,121.14 C217.45,139.85 211.76,155.75 185.06,232.50 C177.98,252.84 169.60,273.85 164.59,283.81 C161.83,289.29 154.04,300.62 143.49,314.50 C125.54,338.12 107.40,363.39 96.83,379.50 C63.25,430.70 51.00,466.08 51.00,511.84 C51.00,543.43 55.55,565.93 66.85,590.26 C72.79,603.05 86.90,623.71 98.19,636.15 C107.25,646.13 131.85,662.12 147.54,668.22 C151.37,669.71 157.50,672.09 161.17,673.50 C172.86,678.01 185.60,680.86 212.50,684.97 C222.88,686.56 254.00,690.00 266.50,690.93 ZM 585.82 1031.47 C588.55,1032.89 592.27,1033.93 594.75,1033.95 C598.26,1033.99 599.69,1033.37 603.03,1030.35 C610.73,1023.40 625.59,1000.68 635.98,980.00 C644.42,963.18 671.38,913.54 680.78,897.50 C684.65,890.90 689.43,882.48 691.40,878.79 C693.37,875.10 698.20,867.00 702.13,860.79 C706.06,854.58 711.59,845.67 714.43,841.00 C722.33,827.97 743.27,798.05 752.82,786.14 C760.52,776.54 770.30,769.13 773.59,770.40 C776.64,771.56 774.83,775.36 767.42,783.34 C763.26,787.83 757.86,794.86 755.44,798.96 C751.07,806.33 749.48,810.60 742.72,833.00 C740.81,839.33 737.79,849.22 736.00,855.00 C730.39,873.16 726.16,888.74 725.49,893.71 C725.13,896.34 724.25,900.75 723.53,903.50 C718.82,921.36 718.03,948.89 721.90,960.28 C726.24,973.10 736.98,982.92 747.61,983.80 C754.28,984.35 758.12,982.84 761.59,978.30 C764.86,974.01 772.62,956.84 777.34,943.46 C779.27,937.98 782.05,930.59 783.52,927.02 C786.42,920.01 795.25,894.92 808.63,855.67 C819.40,824.10 828.82,799.97 834.87,788.47 C837.48,783.51 844.35,773.16 850.14,765.47 C864.94,745.83 871.32,736.63 881.67,720.00 C897.06,695.26 901.36,687.76 904.56,680.00 C906.27,675.88 908.59,670.70 909.72,668.50 C915.55,657.18 925.58,627.85 928.89,612.50 C932.30,596.66 933.16,587.66 933.18,568.00 C933.20,539.77 929.25,516.92 920.92,497.19 C918.68,491.86 916.05,485.48 915.09,483.00 C910.63,471.50 896.24,451.41 882.50,437.49 C863.61,418.36 844.67,407.40 813.00,397.27 C773.34,384.59 699.26,378.37 655.00,384.02 C629.95,387.21 601.10,392.36 590.00,395.61 C578.29,399.03 557.34,408.28 552.25,412.27 C550.19,413.88 550.75,415.58 556.43,424.74 C567.49,442.58 569.98,456.38 566.49,480.50 C565.69,486.00 565.03,491.99 565.02,493.80 L 565.00 497.10 L 573.30 492.58 C582.06,487.80 592.32,485.00 601.02,485.00 C626.76,485.00 649.50,506.88 653.12,535.13 C655.30,552.08 651.83,573.74 644.78,587.17 C639.64,596.98 624.06,609.21 607.17,616.69 C592.59,623.16 561.75,626.83 545.35,624.06 C528.73,621.25 516.00,610.28 516.00,598.75 C516.00,593.84 512.74,579.09 508.88,566.56 C505.97,557.08 505.51,556.30 499.16,550.01 C494.03,544.92 491.27,543.01 487.14,541.70 C480.54,539.61 469.90,539.48 466.10,541.45 C462.41,543.36 457.37,549.17 455.47,553.72 C450.85,564.79 446.73,590.69 446.60,609.50 C446.46,630.24 449.33,637.08 471.69,669.50 C489.96,695.97 492.68,699.26 500.60,704.52 C509.07,710.14 515.89,711.21 542.50,711.10 C555.15,711.05 571.55,710.59 578.95,710.08 C593.94,709.04 596.00,709.50 596.00,713.88 C596.00,716.18 593.26,719.35 580.70,731.59 C572.29,739.79 560.93,750.58 555.45,755.58 C549.98,760.57 540.37,769.34 534.10,775.08 C527.83,780.81 519.28,788.26 515.10,791.64 C510.92,795.02 506.54,798.84 505.37,800.14 C504.20,801.44 500.42,804.75 496.96,807.50 C489.99,813.05 479.30,821.89 468.17,831.30 C458.13,839.80 442.62,856.94 435.32,867.63 C422.69,886.11 418.06,899.06 417.32,918.00 C416.87,929.42 417.05,931.28 419.47,939.50 C422.94,951.27 425.66,956.57 429.97,959.96 C436.39,965.01 439.08,964.62 447.42,957.43 C449.67,955.49 454.70,951.27 458.60,948.04 C462.51,944.80 471.53,936.61 478.66,929.83 C495.12,914.16 506.41,903.96 521.50,891.16 C536.76,878.21 552.49,864.58 563.23,855.00 C567.85,850.88 579.70,840.29 589.57,831.48 C599.43,822.68 611.10,812.36 615.50,808.56 C630.53,795.57 637.30,789.50 648.58,778.84 C667.91,760.60 676.94,753.17 684.23,749.52 C691.42,745.92 694.42,745.25 695.49,746.98 C696.60,748.78 693.54,752.69 686.00,759.09 C681.88,762.59 675.58,768.21 672.00,771.58 C668.42,774.95 663.55,779.44 661.16,781.55 C658.29,784.09 655.32,788.39 652.38,794.23 C649.94,799.10 644.29,809.02 639.82,816.29 C622.85,843.87 605.02,874.00 601.46,881.11 C599.42,885.18 594.91,893.67 591.45,900.00 C579.00,922.69 567.93,950.03 564.31,967.00 C561.78,978.87 561.79,999.67 564.33,1006.25 C565.34,1008.86 566.58,1011.00 567.08,1011.00 C567.59,1011.00 568.00,1012.23 568.00,1013.73 C568.00,1017.10 578.71,1027.77 585.82,1031.47 ZM 537.60 612.16 C542.37,614.75 542.99,614.82 560.55,614.91 C570.48,614.96 579.03,614.59 579.55,614.09 C580.07,613.59 582.75,612.96 585.50,612.69 C593.11,611.93 595.70,611.27 603.00,608.22 C604.38,607.65 606.17,606.91 607.00,606.59 C609.07,605.77 618.77,600.23 620.76,598.73 C621.66,598.05 625.40,594.50 629.08,590.83 C635.08,584.86 638.39,579.65 642.00,570.50 C644.68,563.71 646.24,534.88 644.00,533.50 C643.45,533.16 643.00,531.59 643.00,530.00 C643.00,528.41 642.55,526.84 642.00,526.50 C641.45,526.16 641.00,525.01 641.00,523.94 C641.00,522.87 640.63,522.00 640.19,522.00 C639.74,522.00 638.66,520.54 637.78,518.75 C633.46,509.90 619.55,498.58 609.74,495.93 C601.04,493.58 582.70,498.07 572.45,505.06 C567.43,508.48 561.00,515.70 561.00,517.91 C561.00,520.70 554.41,533.36 551.63,535.92 C550.18,537.26 549.00,539.00 549.00,539.80 C549.00,540.60 550.80,543.94 553.00,547.24 C556.75,552.86 557.00,553.68 557.00,560.53 C557.00,572.71 551.55,582.48 538.05,594.50 C533.73,598.35 529.90,602.15 529.55,602.95 C528.58,605.14 532.12,609.18 537.60,612.16 ZM 395.55 579.08 C396.84,581.17 414.72,578.78 420.91,575.70 C422.78,574.76 424.66,574.00 425.08,574.00 C426.70,574.00 437.76,566.86 440.20,564.24 C441.61,562.73 443.74,558.58 444.95,555.00 C447.63,547.04 451.40,540.39 454.03,538.98 C456.80,537.50 456.48,534.56 453.00,529.50 C451.35,527.10 450.00,524.46 450.00,523.63 C450.00,522.80 449.55,521.84 449.00,521.50 C447.26,520.42 447.83,508.25 449.81,504.20 C454.01,495.62 460.79,486.61 467.18,481.13 C469.81,478.87 471.01,477.07 470.80,475.70 C470.44,473.21 464.43,469.96 454.00,466.61 C434.90,460.47 423.14,460.97 396.78,469.04 C389.50,471.27 370.22,488.73 366.08,496.83 C357.57,513.52 357.20,536.59 365.19,552.97 C370.35,563.55 386.42,578.00 393.04,578.00 C394.05,578.00 395.18,578.49 395.55,579.08 ZM 524.55 588.75 C524.76,589.44 525.22,590.00 525.56,590.00 C527.03,590.00 539.58,576.99 543.14,571.78 C548.65,563.70 548.88,561.44 545.00,554.15 C540.10,544.96 539.82,544.81 526.79,544.44 C514.32,544.08 510.35,543.68 509.34,542.67 C507.51,540.84 506.93,542.30 508.71,544.25 C510.43,546.12 515.14,554.25 515.52,556.00 C515.58,556.28 517.30,561.67 519.34,568.00 C521.38,574.33 523.31,581.30 523.61,583.50 C523.92,585.70 524.34,588.06 524.55,588.75 ZM 492.00 532.53 C496.19,534.88 496.32,534.19 492.51,529.75 C487.66,524.09 481.77,511.49 477.81,498.28 C476.04,492.35 474.41,487.27 474.20,487.00 C473.71,486.38 464.64,496.15 460.85,501.37 C459.30,503.51 458.28,505.64 458.58,506.12 C458.87,506.61 458.68,507.00 458.14,507.00 C456.47,507.00 455.74,512.95 457.03,516.07 C457.70,517.68 458.66,519.00 459.18,519.00 C459.70,519.00 459.86,519.41 459.55,519.91 C459.24,520.42 460.63,523.01 462.63,525.66 C464.64,528.32 466.33,530.58 466.39,530.67 C466.45,530.76 468.75,530.41 471.50,529.89 C477.12,528.82 487.85,530.20 492.00,532.53 Z" fill="rgb(57,8,10)"/>
<path d="M 742.91 982.84 C745.74,983.38 747.58,981.71 750.37,977.49 C753.59,972.64 758.20,963.53 761.23,956.00 C761.78,954.62 763.04,950.46 764.02,946.74 L 765.80 939.99 L 763.54 939.42 C759.92,938.51 754.34,941.50 747.61,947.97 C744.15,951.29 741.03,954.00 740.67,954.00 C740.30,954.00 740.00,952.72 740.00,951.15 C740.00,948.35 743.82,942.17 747.64,938.79 C750.26,936.47 758.71,932.77 763.00,932.07 C766.46,931.51 766.54,931.37 770.12,920.75 C774.84,906.74 778.64,895.94 781.48,888.50 C782.74,885.20 784.90,878.90 786.29,874.50 C789.46,864.42 802.23,826.79 808.50,809.00 C814.23,792.76 823.59,773.25 828.75,766.81 C838.50,754.62 840.65,751.74 848.08,741.00 C852.45,734.67 859.28,725.03 863.26,719.56 C867.24,714.10 871.40,708.15 872.50,706.35 C884.19,687.18 904.45,648.12 912.51,629.22 C921.57,607.96 927.32,587.07 929.50,567.50 C930.35,559.82 930.92,557.83 932.07,558.54 C932.55,558.84 932.84,557.89 932.94,556.06 C933.10,559.93 933.18,563.91 933.18,568.00 C933.16,587.66 932.30,596.66 928.89,612.50 C925.58,627.85 915.55,657.18 909.72,668.50 C908.59,670.70 906.27,675.88 904.56,680.00 C901.36,687.76 897.06,695.26 881.67,720.00 C871.32,736.63 864.94,745.83 850.14,765.47 C844.35,773.16 837.48,783.51 834.87,788.47 C828.82,799.97 819.40,824.10 808.63,855.67 C795.25,894.92 786.42,920.01 783.52,927.02 C782.05,930.59 779.27,937.98 777.34,943.46 C772.62,956.84 764.86,974.01 761.59,978.30 C758.12,982.84 754.28,984.35 747.61,983.80 C746.04,983.67 744.47,983.35 742.91,982.84 ZM 266.50 690.93 C254.00,690.00 222.88,686.56 212.50,684.97 C185.60,680.86 172.86,678.01 161.17,673.50 C157.50,672.09 151.37,669.71 147.54,668.22 C132.55,662.39 109.42,647.53 99.49,637.51 C104.81,642.73 116.07,651.08 117.14,650.42 C117.96,649.90 131.15,653.44 144.00,657.63 C148.17,658.98 151.59,659.75 170.50,663.58 C193.58,668.25 239.87,672.87 273.00,673.81 C318.70,675.10 359.27,673.23 379.16,668.93 C404.15,663.52 418.66,658.20 432.13,649.49 C436.14,646.89 440.36,644.70 441.50,644.63 C443.49,644.51 443.45,644.18 440.03,634.50 C438.12,629.10 437.25,626.47 436.87,622.94 C437.13,624.33 437.48,625.79 437.93,627.50 C440.29,636.53 446.39,649.93 451.16,656.58 C451.36,656.85 451.55,657.11 451.72,657.35 C452.80,658.83 453.51,659.79 453.44,660.70 C453.29,662.54 449.94,664.14 440.00,669.33 C421.50,678.99 396.23,685.37 359.50,689.66 C344.00,691.47 284.51,692.28 266.50,690.93 ZM 423.29 950.51 C424.42,952.86 425.62,954.58 427.25,956.32 C429.39,958.62 430.87,959.95 430.53,959.28 C430.15,958.53 433.68,955.27 439.71,950.80 C451.89,941.77 452.06,941.62 464.17,929.71 C472.55,921.47 474.08,919.49 473.81,917.21 C473.51,914.57 473.32,914.50 467.00,914.50 C460.94,914.50 459.97,914.83 453.07,919.25 C446.48,923.46 442.00,925.15 442.00,923.41 C442.00,923.08 443.69,920.61 445.75,917.93 C451.29,910.70 459.44,907.00 469.82,907.00 C477.35,907.00 477.83,906.85 482.87,903.10 C486.88,900.11 511.10,879.39 518.62,872.52 C519.23,871.96 521.03,870.41 522.62,869.09 C531.63,861.55 544.91,849.75 547.50,846.97 C549.15,845.21 553.65,841.26 557.50,838.19 C565.55,831.76 577.47,821.61 584.00,815.59 C586.47,813.31 590.97,809.43 593.99,806.97 C597.00,804.51 601.73,800.42 604.49,797.87 C607.24,795.32 611.54,791.49 614.04,789.35 C616.54,787.21 619.69,784.40 621.04,783.11 C622.39,781.81 626.88,778.05 631.00,774.74 C638.09,769.07 647.99,760.76 650.40,758.45 C654.33,754.70 663.26,748.39 668.08,745.96 C679.70,740.10 686.76,739.78 692.87,744.85 C693.50,745.37 694.00,745.80 694.40,746.17 C692.80,745.72 689.75,746.76 684.23,749.52 C676.94,753.17 667.91,760.60 648.58,778.84 C637.30,789.50 630.53,795.57 615.50,808.56 C611.10,812.36 599.43,822.68 589.57,831.48 C579.70,840.29 567.85,850.88 563.23,855.00 C552.49,864.58 536.76,878.21 521.50,891.16 C506.41,903.96 495.12,914.16 478.66,929.83 C471.53,936.61 462.51,944.80 458.60,948.04 C454.70,951.27 449.67,955.49 447.42,957.43 C439.08,964.62 436.39,965.01 429.97,959.96 C427.33,957.88 425.28,955.08 423.29,950.51 ZM 594.75 1033.95 C592.41,1033.93 588.94,1033.00 586.27,1031.70 C589.30,1033.13 591.00,1033.33 591.00,1032.20 C591.00,1031.77 594.49,1026.37 598.75,1020.22 C613.36,999.11 619.97,987.38 618.54,985.06 C617.45,983.30 607.43,983.87 601.71,986.01 C598.76,987.11 594.45,989.63 592.15,991.61 C587.25,995.80 584.37,995.64 585.47,991.24 C586.39,987.55 588.41,985.48 594.50,982.00 C600.16,978.76 610.23,976.04 616.62,976.01 L 620.74 976.00 L 626.50 964.75 C629.67,958.56 632.63,953.04 633.07,952.47 C633.51,951.91 638.33,942.91 643.77,932.47 C649.21,922.04 655.69,910.12 658.16,906.00 C660.64,901.88 665.07,894.22 668.02,889.00 C677.06,872.97 698.04,841.19 716.29,815.89 C734.08,791.22 737.42,786.88 744.17,779.62 C748.20,775.28 751.86,771.11 752.30,770.36 C753.36,768.56 760.38,765.00 762.88,765.00 C763.96,765.00 766.12,766.07 767.67,767.38 C769.23,768.69 771.40,769.93 772.50,770.14 C772.70,770.18 772.89,770.22 773.07,770.27 C769.36,769.85 760.15,777.01 752.82,786.14 C743.27,798.05 722.33,827.97 714.43,841.00 C711.59,845.67 706.06,854.58 702.13,860.79 C698.20,867.00 693.37,875.10 691.40,878.79 C689.43,882.48 684.65,890.90 680.78,897.50 C671.38,913.54 644.42,963.18 635.98,980.00 C625.59,1000.68 610.73,1023.40 603.03,1030.35 C599.69,1033.37 598.26,1033.99 594.75,1033.95 ZM 579.45 118.41 C579.93,119.31 580.42,120.28 580.92,121.33 C591.44,143.36 590.24,165.09 577.07,191.50 C566.60,212.50 548.76,233.09 522.04,255.00 C516.34,259.67 507.59,267.10 502.58,271.50 C497.58,275.90 491.24,281.28 488.49,283.45 C485.75,285.63 479.67,291.03 475.00,295.47 C470.33,299.90 459.55,309.82 451.07,317.51 C405.34,358.96 404.94,359.42 411.50,363.07 C412.43,363.59 413.27,363.93 414.29,364.13 C413.55,364.05 413.00,363.94 412.70,363.79 C411.71,363.29 407.58,362.74 403.51,362.57 C390.42,362.02 385.66,356.77 391.68,349.55 C394.30,346.41 406.56,336.00 417.00,328.04 C419.48,326.16 423.75,322.56 426.50,320.06 C432.24,314.84 440.82,307.27 460.00,290.52 C467.42,284.04 477.11,275.45 481.53,271.43 C485.95,267.42 490.90,263.11 492.53,261.85 C497.91,257.73 518.31,239.34 528.62,229.33 C547.95,210.55 555.03,201.23 564.58,181.96 C573.54,163.87 576.45,153.19 577.48,134.70 C577.74,130.02 578.47,125.06 579.10,123.67 C579.89,121.94 580.02,120.23 579.45,118.41 ZM 417.17 37.45 C417.36,37.50 417.57,37.56 417.77,37.62 C426.96,40.29 435.50,50.90 440.62,66.00 C442.08,70.32 442.45,74.17 442.35,84.00 C442.19,98.84 440.68,106.41 434.46,123.56 C425.85,147.32 414.32,170.53 382.35,228.50 C352.37,282.85 337.00,312.81 337.00,316.87 C337.00,318.61 337.83,319.93 338.97,320.52 C338.85,320.50 338.72,320.48 338.59,320.45 C336.57,320.07 334.96,320.26 334.56,320.91 C333.62,322.42 327.87,322.22 325.75,320.61 C323.17,318.65 323.54,316.33 328.37,304.35 C333.83,290.81 352.66,251.64 360.51,237.50 C362.03,234.75 366.41,226.43 370.24,219.00 C376.59,206.69 388.34,185.29 394.94,174.00 C396.39,171.52 399.31,166.12 401.43,162.00 C403.55,157.88 405.64,154.05 406.07,153.49 C406.84,152.49 409.95,144.40 416.62,126.00 C418.51,120.78 421.70,110.20 423.71,102.50 C427.16,89.23 427.36,87.64 427.43,72.00 C427.49,57.09 427.26,54.78 425.05,48.00 C423.71,43.88 422.24,40.06 421.78,39.53 C421.23,38.88 419.40,38.10 417.17,37.45 ZM 471.69 669.50 C450.97,639.46 446.99,631.38 446.63,613.86 C448.52,615.22 457.45,626.97 459.49,630.78 C460.66,632.96 463.65,637.84 466.15,641.62 C468.65,645.40 472.86,651.88 475.51,656.00 C481.56,665.44 491.02,677.88 494.13,680.50 C509.86,693.76 514.39,694.61 563.71,693.62 C598.97,692.91 604.37,693.29 608.25,696.75 C610.76,698.99 610.41,704.10 607.43,708.61 C604.37,713.25 596.22,721.00 594.41,721.00 C592.81,721.00 587.23,725.79 570.06,741.89 C569.07,742.82 568.06,743.77 567.05,744.72 C571.60,740.39 576.52,735.67 580.70,731.59 C593.26,719.35 596.00,716.18 596.00,713.88 C596.00,709.50 593.94,709.04 578.95,710.08 C571.55,710.59 555.15,711.05 542.50,711.10 C515.89,711.21 509.07,710.14 500.60,704.52 C492.68,699.26 489.96,695.97 471.69,669.50 ZM 256.34 87.30 C260.67,88.34 262.55,89.54 267.19,93.84 C274.23,100.36 277.14,105.68 279.52,116.43 C281.36,124.73 281.18,138.33 278.99,155.60 C276.93,171.84 268.31,204.97 254.95,248.00 C252.30,256.52 249.38,266.20 248.45,269.50 C247.52,272.80 246.18,277.08 245.48,279.00 C242.72,286.48 240.83,294.11 241.37,295.52 C241.67,296.30 242.14,296.76 242.73,296.94 C241.31,297.26 239.66,297.48 237.72,297.64 C230.87,298.22 229.97,298.09 229.35,296.47 C228.34,293.83 230.71,278.92 232.95,273.84 C234.00,271.45 235.62,266.12 236.54,262.00 C238.65,252.51 244.66,230.93 246.52,226.14 C247.30,224.14 248.90,218.68 250.09,214.00 C251.27,209.32 252.83,203.93 253.56,202.00 C256.91,193.07 264.90,156.64 266.06,145.00 C267.85,126.93 266.94,106.53 263.92,97.16 C261.91,90.95 260.40,88.56 256.34,87.30 ZM 522.13 535.37 C514.55,534.32 509.65,531.62 503.55,525.42 C494.59,516.32 486.99,499.05 483.55,480.00 C481.49,468.55 479.93,466.54 468.79,460.91 C455.65,454.27 447.75,452.53 431.00,452.57 C414.32,452.60 407.86,453.75 396.00,458.78 C383.03,464.29 376.18,468.71 368.40,476.60 C347.65,497.68 342.66,534.52 357.04,560.56 C343.01,535.15 347.42,499.42 367.30,477.46 C370.77,473.63 374.37,468.86 375.30,466.85 C377.73,461.62 392.19,448.52 399.43,444.98 C410.32,439.65 419.68,437.83 436.50,437.77 C452.17,437.72 460.93,439.08 471.50,443.20 C476.55,445.18 486.02,451.71 489.26,455.46 C492.47,459.18 498.00,471.64 498.00,475.16 C498.00,480.39 501.73,499.66 504.17,506.98 C507.42,516.79 512.44,525.99 517.43,531.26 C519.62,533.58 520.80,534.77 522.13,535.37 ZM 567.53 471.71 L 566.88 483.46 L 569.19 481.33 C573.34,477.49 584.37,472.18 590.74,470.95 C604.20,468.35 622.79,472.13 634.58,479.86 C657.92,495.17 667.58,521.07 660.44,549.22 C658.44,557.12 654.87,564.58 653.24,564.25 C652.54,564.11 652.00,565.01 652.00,566.32 C652.00,569.59 647.63,582.08 644.42,587.96 C642.58,591.35 639.18,595.21 634.81,599.08 C639.32,595.02 642.82,590.92 644.78,587.17 C651.83,573.74 655.30,552.08 653.12,535.13 C649.50,506.88 626.76,485.00 601.02,485.00 C592.32,485.00 582.06,487.80 573.30,492.58 L 565.00 497.10 L 565.02 493.80 C565.03,491.99 565.69,486.00 566.49,480.50 C566.94,477.41 567.28,474.49 567.53,471.71 ZM 191.04 545.48 C179.15,551.44 178.92,551.52 177.35,549.95 C175.45,548.05 177.15,544.11 181.36,540.71 C201.52,524.43 248.03,514.25 278.20,519.53 C292.16,521.97 305.65,527.60 311.17,533.28 C314.41,536.63 320.00,544.79 320.00,546.20 C320.00,547.96 316.85,546.80 310.96,542.89 C293.50,531.30 274.58,527.04 249.00,528.96 C226.49,530.65 212.86,534.54 191.04,545.48 ZM 524.55 588.75 C524.34,588.06 523.92,585.70 523.61,583.50 C523.31,581.30 521.38,574.33 519.34,568.00 C517.30,561.67 515.58,556.28 515.52,556.00 C515.14,554.25 510.43,546.12 508.71,544.25 C506.93,542.30 507.51,540.84 509.34,542.67 C510.35,543.68 514.32,544.08 526.79,544.44 C539.82,544.81 540.10,544.96 545.00,554.15 C548.88,561.44 548.65,563.70 543.14,571.78 C539.58,576.99 527.03,590.00 525.56,590.00 C525.22,590.00 524.76,589.44 524.55,588.75 ZM 492.00 532.53 C487.85,530.20 477.12,528.82 471.50,529.89 C468.75,530.41 466.45,530.76 466.39,530.67 C466.33,530.58 464.64,528.32 462.63,525.66 C460.63,523.01 459.24,520.42 459.55,519.91 C459.86,519.41 459.70,519.00 459.18,519.00 C458.66,519.00 457.70,517.68 457.03,516.07 C455.74,512.95 456.47,507.00 458.14,507.00 C458.68,507.00 458.87,506.61 458.58,506.12 C458.28,505.64 459.30,503.51 460.85,501.37 C464.64,496.15 473.71,486.38 474.20,487.00 C474.41,487.27 476.04,492.35 477.81,498.28 C481.77,511.49 487.66,524.09 492.51,529.75 C496.32,534.19 496.19,534.88 492.00,532.53 ZM 450.02 61.01 C450.58,62.64 451.10,64.31 451.57,66.00 C453.68,73.63 454.67,91.73 453.07,93.33 C452.48,93.92 451.99,95.77 451.99,97.45 C451.98,99.08 451.41,102.53 450.67,106.04 C451.61,100.27 452.09,92.80 452.09,83.65 C452.09,72.92 451.70,66.85 450.02,61.01 ZM 940.48 607.64 C940.81,603.33 941.69,597.94 942.43,595.66 C942.64,595.03 942.83,594.28 943.00,593.42 C942.74,596.93 942.52,600.05 942.38,602.00 C942.09,606.12 941.43,609.93 940.92,610.45 C940.42,610.97 940.00,613.12 940.00,615.21 C940.00,617.31 939.57,619.81 939.04,620.76 C938.67,621.45 937.60,624.81 936.37,629.09 C937.50,624.57 938.24,620.91 938.20,619.52 C938.16,617.88 938.52,616.30 939.00,616.00 C939.48,615.70 940.15,611.94 940.48,607.64 ZM 597.65 138.50 C596.97,135.44 596.42,133.03 595.93,131.02 C596.40,132.92 596.91,135.17 597.55,138.00 C600.03,149.11 598.98,167.74 595.42,175.65 C594.64,177.38 594.00,179.14 594.00,179.54 C594.00,180.18 592.79,183.23 591.16,186.97 C593.58,180.91 595.29,175.21 595.63,171.53 C595.88,168.80 596.61,166.24 597.25,165.84 C599.18,164.65 599.44,146.59 597.65,138.50 ZM 408.74 465.66 C403.76,467.00 399.83,468.50 398.89,469.64 C398.26,470.39 396.63,471.00 395.25,471.00 C392.96,471.00 388.22,474.02 383.17,478.17 C388.48,473.65 393.71,469.98 396.78,469.04 C401.13,467.71 405.08,466.58 408.74,465.66 ZM 291.53 137.82 C291.28,143.35 290.84,148.85 290.24,152.50 C289.69,155.80 288.26,162.77 287.04,168.00 C286.74,169.33 286.35,170.98 285.93,172.81 C286.43,170.60 286.97,168.27 287.53,165.81 C289.30,158.08 290.19,151.39 290.16,146.06 C290.12,140.90 290.50,138.00 291.19,138.00 C291.32,138.00 291.44,137.94 291.53,137.82 ZM 378.88 697.29 C368.37,698.79 365.26,699.36 364.50,699.84 C363.77,700.30 358.01,700.67 349.43,700.93 C350.67,700.83 351.70,700.72 352.50,700.60 C358.00,699.78 367.23,698.61 373.00,697.99 C374.94,697.78 376.96,697.54 378.88,697.29 ZM 285.88 101.79 C287.15,104.55 288.18,107.46 288.91,110.50 C289.58,113.25 290.58,117.07 291.13,119.00 C291.69,120.93 291.84,126.77 291.69,133.30 C291.65,132.97 291.61,132.62 291.57,132.25 C291.17,129.09 290.66,123.57 290.42,120.00 C290.01,113.79 288.39,107.46 285.88,101.79 ZM 790.59 936.70 C789.98,938.43 789.33,940.84 788.88,943.11 C788.19,946.63 787.10,950.17 786.44,951.00 C785.90,951.69 784.57,954.48 783.27,957.63 C784.42,954.55 785.40,951.51 785.63,950.28 C785.90,948.78 786.51,947.30 786.99,947.01 C787.46,946.71 788.41,944.23 789.09,941.49 C789.49,939.86 790.05,938.10 790.59,936.70 ZM 684.21 913.37 C683.25,915.07 682.39,916.63 681.70,917.90 C679.39,922.20 675.51,929.27 673.08,933.61 C670.16,938.82 668.67,941.50 664.81,948.70 C669.25,940.42 671.02,937.19 673.18,933.35 C674.77,930.52 676.28,927.15 676.53,925.85 C676.77,924.56 677.57,923.05 678.29,922.50 C678.95,922.00 681.52,918.03 684.21,913.37 ZM 417.32 918.00 C417.40,915.73 417.55,913.54 417.76,911.42 C417.67,913.60 417.63,916.20 417.60,919.50 C417.53,928.76 417.64,932.34 418.70,936.82 C417.02,930.70 416.92,928.06 417.32,918.00 ZM 442.53 130.04 C440.44,136.13 438.73,141.76 438.80,142.75 C438.90,143.99 438.53,145.00 437.99,145.00 C437.69,145.00 437.43,145.17 437.25,145.43 C437.32,145.20 437.36,145.02 437.37,144.89 C437.53,143.58 438.22,141.15 438.91,139.50 C439.47,138.17 440.97,134.25 442.53,130.04 ZM 931.18 535.84 C931.13,535.56 931.08,535.28 931.04,535.00 C928.78,521.68 926.17,511.15 922.86,502.03 C926.74,512.34 929.49,523.52 931.18,535.84 ZM 225.46 119.85 C221.04,130.88 217.45,140.29 210.56,159.67 C217.29,140.74 220.85,131.36 224.93,121.14 C234.44,97.37 237.86,91.63 245.06,87.67 C244.45,88.07 243.77,88.57 242.97,89.18 C236.99,93.73 233.40,100.03 225.46,119.85 ZM 447.43 464.70 C438.83,462.73 429.99,462.07 422.40,462.99 C421.73,463.07 421.05,463.16 420.37,463.26 C430.21,461.79 438.17,462.32 447.43,464.70 ZM 271.39 83.92 C265.12,79.69 257.59,77.00 251.25,77.00 C258.37,77.00 265.35,79.55 271.39,83.92 ZM 437.00 146.15 C437.00,146.18 437.00,146.22 437.00,146.26 C437.00,147.46 430.48,160.88 422.76,176.08 C429.61,162.51 435.49,150.28 437.00,146.15 ZM 540.39 531.70 C539.17,532.69 537.92,533.53 536.68,534.16 C534.17,535.44 532.52,535.92 529.46,535.91 C533.44,535.55 537.16,534.09 540.39,531.70 ZM 425.30 28.85 C428.95,30.43 432.09,33.08 436.41,37.48 C437.59,38.68 438.74,40.01 439.85,41.45 C435.54,36.25 429.94,31.18 425.79,29.10 C425.62,29.01 425.46,28.93 425.30,28.85 ZM 457.16 550.55 C455.20,553.85 453.80,557.96 452.06,564.93 C450.53,571.07 448.96,580.87 447.82,590.09 C449.40,575.71 452.32,561.27 455.47,553.72 C455.90,552.71 456.47,551.63 457.16,550.55 ZM 400.53 693.41 C395.08,694.62 389.28,695.74 384.97,696.41 C386.05,696.24 386.92,696.08 387.50,695.95 C389.70,695.44 394.20,694.57 397.50,694.00 C398.35,693.85 399.39,693.65 400.53,693.41 ZM 246.92 295.32 C248.68,293.85 250.55,291.52 252.11,288.67 C250.54,291.93 249.04,293.98 246.92,295.32 ZM 428.24 878.91 C424.98,884.74 422.68,890.19 420.47,897.00 C420.43,897.13 420.39,897.25 420.35,897.37 C422.08,891.23 424.64,885.29 428.24,878.91 ZM 904.40 464.18 C898.02,455.05 889.80,444.89 882.50,437.49 C890.22,445.31 898.14,455.08 904.40,464.18 ZM 487.33 541.77 C491.36,543.08 494.11,545.00 499.16,550.01 C494.98,545.87 491.41,543.27 487.33,541.77 ZM 439.49 577.34 C439.53,578.29 439.09,582.33 438.41,587.00 C438.07,589.40 437.69,592.70 437.36,596.18 C437.63,592.81 437.95,589.74 438.28,587.50 C439.02,582.57 439.52,578.31 439.49,577.34 ZM 565.88 226.91 C557.06,237.80 547.91,247.79 543.53,250.76 C547.76,247.89 557.05,237.75 565.88,226.91 ZM 359.07 294.04 C361.59,289.53 364.80,285.54 374.89,275.79 C365.23,285.14 361.84,289.29 359.07,294.04 ZM 582.00 1029.09 C579.01,1026.96 575.85,1024.17 573.29,1021.51 C573.69,1021.90 574.11,1022.31 574.56,1022.74 C576.95,1025.02 579.78,1027.42 582.00,1029.09 ZM 469.98 540.38 C467.57,540.79 465.66,541.60 463.82,542.97 C464.61,542.34 465.38,541.82 466.10,541.45 C467.03,540.97 468.38,540.61 469.98,540.38 ZM 919.35 493.43 C917.42,488.99 915.62,484.58 915.02,482.82 C915.04,482.88 915.07,482.94 915.09,483.00 C915.83,484.91 917.56,489.14 919.35,493.43 ZM 552.81 757.99 C552.12,758.63 551.53,759.17 551.06,759.59 C544.49,765.62 539.25,770.40 534.97,774.28 C540.27,769.43 547.53,762.80 552.81,757.99 ZM 527.85 780.70 C522.09,785.83 518.58,788.83 515.10,791.64 C517.99,789.30 522.97,785.02 527.85,780.70 ZM 571.28 109.39 C572.85,109.91 574.32,110.99 575.79,112.74 C575.74,112.68 575.68,112.63 575.63,112.57 C574.19,111.05 572.80,109.96 571.28,109.39 ZM 729.78 973.87 C731.86,976.19 734.19,978.20 736.72,979.82 C737.42,980.27 738.07,980.67 738.69,981.03 C735.48,979.30 732.44,976.85 729.78,973.87 ZM 258.88 273.63 C260.29,270.77 261.34,269.11 262.67,267.37 C261.61,268.76 260.14,271.21 258.88,273.63 ZM 347.47 313.61 C349.25,311.02 351.22,307.95 353.06,304.91 C351.12,308.16 349.07,311.37 347.47,313.61 ZM 695.60 748.52 C695.50,748.98 695.25,749.50 694.87,750.19 C694.58,750.74 693.79,751.68 692.69,752.83 C694.33,751.04 695.29,749.61 695.60,748.52 ZM 406.61 36.26 C404.86,36.61 402.92,37.29 401.60,38.08 C403.18,37.14 404.81,36.54 406.61,36.26 ZM 469.71 478.55 C470.84,477.07 471.05,475.82 470.33,474.62 C470.59,474.99 470.75,475.35 470.80,475.70 C470.92,476.50 470.56,477.45 469.71,478.55 ZM 258.03 700.43 C256.90,700.36 255.89,700.28 255.00,700.21 C244.52,699.31 232.59,697.96 220.90,696.42 C232.62,697.96 244.57,699.31 255.00,700.20 C255.94,700.28 256.95,700.35 258.03,700.43 ZM 797.71 919.58 C800.98,910.72 804.63,900.05 806.47,893.56 C804.58,900.22 800.97,910.78 797.71,919.58 ZM 693.35 897.85 C692.76,898.84 692.12,899.90 691.45,900.99 C690.56,902.45 689.56,904.13 688.53,905.89 C690.38,902.72 692.18,899.73 693.35,897.85 ZM 485.00 363.93 C481.06,363.40 468.39,363.13 455.27,363.12 C468.37,363.13 481.03,363.40 485.00,363.93 ZM 249.34 86.17 C250.10,86.15 250.97,86.24 252.12,86.43 C251.99,86.41 251.86,86.39 251.73,86.38 C250.79,86.25 250.03,86.17 249.34,86.17 ZM 281.79 190.61 C281.14,193.39 280.49,196.11 279.91,198.45 C280.43,196.33 281.05,193.73 281.79,190.61 ZM 421.00 688.25 C422.15,687.96 423.18,687.70 424.00,687.51 C425.36,687.19 426.91,686.73 428.51,686.19 C426.91,686.73 425.36,687.19 424.00,687.51 C423.19,687.70 422.16,687.96 421.00,688.25 ZM 448.18 115.24 C448.14,115.33 448.10,115.42 448.07,115.50 C448.02,115.61 447.97,115.72 447.91,115.83 C447.97,115.70 448.02,115.59 448.06,115.50 C448.10,115.42 448.14,115.33 448.18,115.24 Z" fill="rgb(235,165,149)"/>
<path d="M 579.45 118.41 C580.02,120.23 579.89,121.94 579.10,123.67 C578.47,125.06 577.74,130.02 577.48,134.70 C576.45,153.19 573.54,163.87 564.58,181.96 C555.03,201.23 547.95,210.55 528.62,229.33 C518.31,239.34 497.91,257.73 492.53,261.85 C490.90,263.11 485.95,267.42 481.53,271.43 C477.11,275.45 467.42,284.04 460.00,290.52 C440.82,307.27 432.24,314.84 426.50,320.06 C423.75,322.56 419.48,326.16 417.00,328.04 C406.56,336.00 394.30,346.41 391.68,349.55 C385.66,356.77 390.42,362.02 403.51,362.57 C407.58,362.74 411.71,363.29 412.70,363.79 C413.00,363.94 413.55,364.05 414.29,364.13 C415.97,364.45 418.14,364.35 422.00,363.93 C427.34,363.36 442.49,363.09 456.73,363.12 C456.25,363.12 455.76,363.12 455.27,363.12 C468.38,363.13 481.03,363.40 484.99,363.93 L 485.00 363.93 C493.69,365.08 501.78,368.26 506.68,372.46 C508.89,374.35 513.45,379.64 516.80,384.20 C520.16,388.77 523.98,393.85 525.30,395.50 C527.85,398.68 541.36,418.75 547.18,428.00 C552.54,436.52 555.97,444.77 557.24,452.20 C559.38,464.67 554.90,505.17 549.91,518.52 C548.06,523.46 544.40,528.43 540.39,531.70 C537.16,534.09 533.44,535.55 529.46,535.91 C528.33,535.91 527.00,535.84 525.37,535.71 C524.24,535.63 523.16,535.51 522.13,535.37 C520.80,534.77 519.62,533.58 517.43,531.26 C512.44,525.99 507.42,516.79 504.17,506.98 C501.73,499.66 498.00,480.39 498.00,475.16 C498.00,471.64 492.47,459.18 489.26,455.46 C486.02,451.71 476.55,445.18 471.50,443.20 C460.93,439.08 452.17,437.72 436.50,437.77 C419.68,437.83 410.32,439.65 399.43,444.98 C392.19,448.52 377.73,461.62 375.30,466.85 C374.37,468.86 370.77,473.63 367.30,477.46 C347.42,499.42 343.01,535.15 357.04,560.56 C366.80,578.25 388.77,591.40 405.41,589.53 C413.84,588.58 426.53,584.38 433.31,580.29 C436.50,578.36 439.27,576.95 439.45,577.14 C439.47,577.16 439.48,577.23 439.49,577.34 C439.52,578.31 439.02,582.57 438.28,587.50 C437.95,589.74 437.63,592.81 437.36,596.18 C436.96,600.26 436.62,604.58 436.44,608.00 C436.05,615.32 436.08,618.80 436.87,622.94 C437.25,626.47 438.12,629.10 440.03,634.50 C443.45,644.18 443.49,644.51 441.50,644.63 C440.36,644.70 436.14,646.89 432.13,649.49 C418.66,658.20 404.15,663.52 379.16,668.93 C359.27,673.23 318.70,675.10 273.00,673.81 C239.87,672.87 193.58,668.25 170.50,663.58 C151.59,659.75 148.17,658.98 144.00,657.63 C131.15,653.44 117.96,649.90 117.14,650.42 C116.07,651.08 104.81,642.73 99.49,637.51 C99.03,637.05 98.59,636.59 98.19,636.15 C86.90,623.71 72.79,603.05 66.85,590.26 C55.55,565.93 51.00,543.43 51.00,511.84 C51.00,466.08 63.25,430.70 96.83,379.50 C107.40,363.39 125.54,338.12 143.49,314.50 C154.04,300.62 161.83,289.29 164.59,283.81 C169.60,273.85 177.98,252.84 185.06,232.50 C197.17,197.68 204.96,175.38 210.56,159.67 C217.45,140.29 221.04,130.88 225.46,119.85 C233.40,100.03 236.99,93.73 242.97,89.18 C243.77,88.57 244.45,88.07 245.06,87.67 C245.15,87.62 245.23,87.58 245.31,87.53 C246.94,86.66 247.95,86.22 249.34,86.17 C250.03,86.17 250.79,86.25 251.73,86.38 C251.86,86.39 251.99,86.41 252.12,86.43 C252.93,86.57 253.87,86.76 255.00,87.00 C255.47,87.10 255.92,87.20 256.34,87.30 C260.40,88.56 261.91,90.95 263.92,97.16 C266.94,106.53 267.85,126.93 266.06,145.00 C264.90,156.64 256.91,193.07 253.56,202.00 C252.83,203.93 251.27,209.32 250.09,214.00 C248.90,218.68 247.30,224.14 246.52,226.14 C244.66,230.93 238.65,252.51 236.54,262.00 C235.62,266.12 234.00,271.45 232.95,273.84 C230.71,278.92 228.34,293.83 229.35,296.47 C229.97,298.09 230.87,298.22 237.72,297.64 C239.66,297.48 241.31,297.26 242.73,296.94 C243.82,297.28 245.33,296.65 246.92,295.32 C249.04,293.98 250.54,291.93 252.11,288.67 C252.57,287.82 253.01,286.93 253.40,285.99 C255.90,280.09 257.55,276.33 258.88,273.63 C260.14,271.21 261.61,268.76 262.67,267.37 C266.06,262.93 292.97,221.22 302.08,206.29 C323.07,171.89 331.98,156.06 358.23,106.50 C381.07,63.39 394.43,42.30 401.60,38.08 C402.92,37.29 404.86,36.61 406.61,36.26 C409.48,35.83 412.80,36.23 417.17,37.45 C419.40,38.10 421.23,38.88 421.78,39.53 C422.24,40.06 423.71,43.88 425.05,48.00 C427.26,54.78 427.49,57.09 427.43,72.00 C427.36,87.64 427.16,89.23 423.71,102.50 C421.70,110.20 418.51,120.78 416.62,126.00 C409.95,144.40 406.84,152.49 406.07,153.49 C405.64,154.05 403.55,157.88 401.43,162.00 C399.31,166.12 396.39,171.52 394.94,174.00 C388.34,185.29 376.59,206.69 370.24,219.00 C366.41,226.43 362.03,234.75 360.51,237.50 C352.66,251.64 333.83,290.81 328.37,304.35 C323.54,316.33 323.17,318.65 325.75,320.61 C327.87,322.22 333.62,322.42 334.56,320.91 C334.96,320.26 336.57,320.07 338.59,320.45 C338.72,320.48 338.85,320.50 338.97,320.52 C340.01,321.06 341.32,320.98 342.45,320.04 C343.43,319.23 345.30,316.78 347.47,313.61 C349.07,311.37 351.12,308.16 353.06,304.91 C354.87,301.92 356.54,298.95 357.78,296.50 C358.21,295.64 358.63,294.84 359.07,294.04 C361.84,289.29 365.23,285.14 374.89,275.79 C382.62,268.32 394.40,257.46 413.00,240.38 C417.13,236.59 428.49,226.89 441.33,216.20 C487.28,177.91 512.50,155.85 535.41,133.86 C555.63,114.47 562.97,109.00 568.82,109.00 C569.67,109.00 570.49,109.12 571.28,109.39 C572.80,109.96 574.19,111.05 575.63,112.57 C575.68,112.63 575.74,112.68 575.79,112.74 C576.99,114.16 578.19,116.03 579.45,118.41 ZM 585.82 1031.47 C584.63,1030.85 583.33,1030.03 582.00,1029.08 C579.78,1027.42 576.95,1025.02 574.56,1022.74 C574.11,1022.31 573.69,1021.90 573.29,1021.51 C570.21,1018.30 568.00,1015.26 568.00,1013.73 C568.00,1012.23 567.59,1011.00 567.08,1011.00 C566.58,1011.00 565.34,1008.86 564.33,1006.25 C561.79,999.67 561.78,978.87 564.31,967.00 C567.93,950.03 579.00,922.69 591.45,900.00 C594.91,893.67 599.42,885.18 601.46,881.11 C605.02,874.00 622.85,843.87 639.82,816.29 C644.29,809.02 649.94,799.10 652.38,794.23 C655.32,788.39 658.29,784.09 661.16,781.55 C663.55,779.44 668.42,774.95 672.00,771.58 C675.58,768.21 681.88,762.59 686.00,759.09 C688.88,756.65 691.10,754.57 692.69,752.83 C693.79,751.68 694.58,750.74 694.87,750.19 C695.25,749.50 695.50,748.98 695.60,748.52 C695.78,747.90 695.74,747.38 695.49,746.98 C695.24,746.57 694.88,746.30 694.40,746.17 C694.00,745.80 693.50,745.37 692.87,744.85 C686.76,739.78 679.70,740.10 668.08,745.96 C663.26,748.39 654.33,754.70 650.40,758.45 C647.99,760.76 638.09,769.07 631.00,774.74 C626.88,778.05 622.39,781.81 621.04,783.11 C619.69,784.40 616.54,787.21 614.04,789.35 C611.54,791.49 607.24,795.32 604.49,797.87 C601.73,800.42 597.00,804.51 593.99,806.97 C590.97,809.43 586.47,813.31 584.00,815.59 C577.47,821.61 565.55,831.76 557.50,838.19 C553.65,841.26 549.15,845.21 547.50,846.97 C544.91,849.75 531.63,861.55 522.62,869.09 C521.03,870.41 519.23,871.96 518.62,872.52 C511.10,879.39 486.88,900.11 482.87,903.10 C477.83,906.85 477.35,907.00 469.82,907.00 C459.44,907.00 451.29,910.70 445.75,917.93 C443.69,920.61 442.00,923.08 442.00,923.41 C442.00,925.15 446.48,923.46 453.07,919.25 C459.97,914.83 460.94,914.50 467.00,914.50 C473.32,914.50 473.51,914.57 473.81,917.21 C474.08,919.49 472.55,921.47 464.17,929.71 C452.06,941.62 451.89,941.77 439.71,950.80 C433.68,955.27 430.15,958.53 430.53,959.28 C430.87,959.95 429.39,958.62 427.25,956.32 C425.62,954.58 424.42,952.86 423.29,950.51 C422.04,947.63 420.81,944.05 419.47,939.50 C419.19,938.52 418.93,937.64 418.70,936.82 C417.64,932.34 417.53,928.76 417.60,919.50 C417.63,916.20 417.67,913.60 417.76,911.42 C418.25,906.46 419.08,901.86 420.35,897.37 C420.39,897.25 420.43,897.13 420.47,897.00 C422.68,890.19 424.98,884.74 428.24,878.91 L 428.24 878.91 C430.26,875.33 432.60,871.61 435.32,867.63 C442.62,856.94 458.13,839.80 468.17,831.30 C479.30,821.89 489.99,813.05 496.96,807.50 C500.42,804.75 504.20,801.44 505.37,800.14 C506.54,798.84 510.92,795.02 515.10,791.64 C518.58,788.83 522.09,785.84 527.84,780.70 L 527.85 780.70 C530.02,778.77 532.17,776.84 534.10,775.08 L 534.97 774.28 C539.25,770.40 544.49,765.62 551.06,759.59 C551.53,759.17 552.12,758.63 552.81,757.99 C553.76,757.12 554.65,756.31 555.45,755.58 C558.21,753.07 562.44,749.09 567.05,744.72 C568.06,743.77 569.07,742.82 570.06,741.89 C587.23,725.79 592.81,721.00 594.41,721.00 C596.22,721.00 604.37,713.25 607.43,708.61 C610.41,704.10 610.76,698.99 608.25,696.75 C604.37,693.29 598.97,692.91 563.71,693.62 C514.39,694.61 509.86,693.76 494.13,680.50 C491.02,677.88 481.56,665.44 475.51,656.00 C472.86,651.88 468.65,645.40 466.15,641.62 C463.65,637.84 460.66,632.96 459.49,630.78 C457.45,626.97 448.52,615.22 446.63,613.86 C446.60,612.47 446.59,611.02 446.60,609.50 C446.64,603.51 447.09,596.81 447.82,590.09 C448.96,580.87 450.53,571.07 452.06,564.93 C453.80,557.96 455.20,553.85 457.16,550.55 C458.95,547.72 461.47,544.85 463.82,542.97 C465.66,541.60 467.57,540.79 469.98,540.38 C474.89,539.66 482.16,540.12 487.14,541.70 C487.20,541.72 487.27,541.74 487.33,541.77 C491.41,543.27 494.98,545.87 499.16,550.01 C505.51,556.30 505.97,557.08 508.88,566.56 C512.74,579.09 516.00,593.84 516.00,598.75 C516.00,610.28 528.73,621.25 545.35,624.06 C561.75,626.83 592.59,623.16 607.17,616.69 C617.60,612.07 627.53,605.64 634.81,599.08 C639.18,595.21 642.58,591.35 644.42,587.96 C647.63,582.08 652.00,569.59 652.00,566.32 C652.00,565.01 652.54,564.11 653.24,564.25 C654.87,564.58 658.44,557.12 660.44,549.22 C667.58,521.07 657.92,495.17 634.58,479.86 C622.79,472.13 604.20,468.35 590.74,470.95 C584.37,472.18 573.34,477.49 569.19,481.33 L 566.88 483.46 L 567.53 471.71 C569.20,452.78 566.08,440.29 556.43,424.74 C550.75,415.58 550.19,413.88 552.25,412.27 C557.34,408.28 578.29,399.03 590.00,395.61 C601.10,392.36 629.95,387.21 655.00,384.02 C699.26,378.37 773.34,384.59 813.00,397.27 C844.67,407.40 863.61,418.36 882.50,437.49 C889.80,444.89 898.02,455.05 904.40,464.18 C909.22,471.19 913.04,477.80 915.02,482.82 C915.62,484.58 917.42,488.99 919.35,493.43 C919.88,494.70 920.41,495.97 920.92,497.19 C921.60,498.78 922.24,500.40 922.86,502.03 L 922.86 502.03 C926.17,511.15 928.78,521.68 931.04,535.00 C931.08,535.28 931.13,535.56 931.18,535.84 C932.05,542.26 932.64,548.98 932.94,556.06 C932.84,557.89 932.55,558.84 932.07,558.54 C930.92,557.83 930.35,559.82 929.50,567.50 C927.32,587.07 921.57,607.96 912.51,629.22 C904.45,648.12 884.19,687.18 872.50,706.35 C871.40,708.15 867.24,714.10 863.26,719.56 C859.28,725.03 852.45,734.67 848.08,741.00 C840.65,751.74 838.50,754.62 828.75,766.81 C823.59,773.25 814.23,792.76 808.50,809.00 C802.23,826.79 789.46,864.42 786.29,874.50 C784.90,878.90 782.74,885.20 781.48,888.50 C778.64,895.94 774.84,906.74 770.12,920.75 C766.54,931.37 766.46,931.51 763.00,932.07 C758.71,932.77 750.26,936.47 747.64,938.79 C743.82,942.17 740.00,948.35 740.00,951.15 C740.00,952.72 740.30,954.00 740.67,954.00 C741.03,954.00 744.15,951.29 747.61,947.97 C754.34,941.50 759.92,938.51 763.54,939.42 L 765.80 939.99 L 764.02 946.74 C763.04,950.46 761.78,954.62 761.23,956.00 C758.20,963.53 753.59,972.64 750.37,977.49 C747.58,981.71 745.74,983.38 742.91,982.84 C741.48,982.38 740.07,981.77 738.69,981.03 C738.07,980.67 737.42,980.27 736.72,979.82 C734.19,978.20 731.86,976.19 729.79,973.87 L 729.78 973.87 C726.40,970.08 723.64,965.42 721.90,960.28 C718.03,948.89 718.82,921.36 723.53,903.50 C724.25,900.75 725.13,896.34 725.49,893.71 C726.16,888.74 730.39,873.16 736.00,855.00 C737.79,849.22 740.81,839.33 742.72,833.00 C749.48,810.60 751.07,806.33 755.44,798.96 C757.86,794.86 763.26,787.83 767.42,783.34 C774.83,775.36 776.64,771.56 773.59,770.40 C773.43,770.34 773.26,770.29 773.07,770.27 C772.89,770.22 772.70,770.18 772.50,770.14 C771.40,769.93 769.23,768.69 767.67,767.38 C766.12,766.07 763.96,765.00 762.88,765.00 C760.38,765.00 753.36,768.56 752.30,770.36 C751.86,771.11 748.20,775.28 744.17,779.62 C737.42,786.88 734.08,791.22 716.29,815.89 C698.04,841.19 677.06,872.97 668.02,889.00 C665.07,894.22 660.64,901.88 658.16,906.00 C655.69,910.12 649.21,922.04 643.77,932.47 C638.33,942.91 633.51,951.91 633.07,952.47 C632.63,953.04 629.67,958.56 626.50,964.75 L 620.74 976.00 L 616.62 976.01 C610.23,976.04 600.16,978.76 594.50,982.00 C588.41,985.48 586.39,987.55 585.47,991.24 C584.37,995.64 587.25,995.80 592.15,991.61 C594.45,989.63 598.76,987.11 601.71,986.01 C607.43,983.87 617.45,983.30 618.54,985.06 C619.97,987.38 613.36,999.11 598.75,1020.22 C594.49,1026.37 591.00,1031.77 591.00,1032.20 C591.00,1033.33 589.30,1033.13 586.27,1031.70 L 586.27 1031.70 C586.12,1031.62 585.97,1031.55 585.82,1031.47 ZM 191.04 545.48 C212.86,534.54 226.49,530.65 249.00,528.96 C274.58,527.04 293.50,531.30 310.96,542.89 C316.85,546.80 320.00,547.96 320.00,546.20 C320.00,544.79 314.41,536.63 311.17,533.28 C305.65,527.60 292.16,521.97 278.20,519.53 C248.03,514.25 201.52,524.43 181.36,540.71 C177.15,544.11 175.45,548.05 177.35,549.95 C178.92,551.52 179.15,551.44 191.04,545.48 ZM 378.88 697.29 C381.18,696.99 383.32,696.68 384.97,696.41 L 384.98 696.41 C389.28,695.74 395.08,694.62 400.53,693.41 L 400.53 693.41 C403.81,692.73 407.94,691.74 411.00,690.89 C414.01,690.06 417.93,689.02 421.00,688.25 C422.16,687.96 423.19,687.70 424.00,687.51 C425.35,687.19 426.91,686.73 428.51,686.19 L 428.51 686.19 C429.20,685.95 429.90,685.71 430.60,685.45 L 430.67 685.43 C428.10,686.58 424.78,688.04 423.00,688.80 C421.08,689.62 418.72,690.68 417.76,691.15 C416.81,691.62 414.92,692.00 413.57,692.00 C412.22,692.00 410.84,692.45 410.50,693.00 C410.16,693.55 408.14,694.00 406.00,694.00 C403.86,694.00 401.84,694.45 401.50,695.00 C401.16,695.55 398.97,696.00 396.64,696.00 C394.31,696.00 391.97,696.41 391.45,696.91 C390.93,697.41 388.02,698.05 385.00,698.33 C381.98,698.61 375.23,699.37 370.00,700.01 C364.77,700.65 356.00,701.31 350.50,701.47 C345.00,701.64 339.23,702.27 337.68,702.89 C333.89,704.39 282.47,704.41 278.17,702.91 C276.46,702.31 269.53,701.65 262.77,701.44 C242.92,700.81 232.00,699.92 232.00,698.93 C232.00,698.42 227.75,698.00 222.56,698.00 C217.34,698.00 212.84,697.55 212.50,697.00 C212.16,696.45 209.24,696.00 206.00,696.00 C202.76,696.00 199.84,695.55 199.50,695.00 C199.16,694.45 196.46,694.00 193.50,694.00 C190.54,694.00 187.84,693.55 187.50,693.00 C187.16,692.45 185.20,692.00 183.14,692.00 C181.08,692.00 178.97,691.62 178.45,691.17 C177.39,690.24 170.89,687.92 164.00,686.02 C161.52,685.33 158.60,684.42 157.50,683.99 C156.40,683.56 153.93,682.66 152.00,682.00 C153.93,682.66 156.40,683.54 157.50,683.96 C159.68,684.79 164.27,686.14 170.50,687.78 C180.26,690.36 200.40,693.73 221.20,696.46 C232.79,697.98 244.61,699.31 255.00,700.21 C255.89,700.28 256.90,700.36 258.03,700.43 C280.86,702.00 333.06,702.26 349.43,700.93 C358.01,700.67 363.77,700.30 364.50,699.84 C365.26,699.36 368.37,698.79 378.88,697.29 ZM 289.61 155.94 C289.11,159.34 288.51,163.76 288.06,167.50 C287.39,173.00 286.43,178.28 285.93,179.24 C285.42,180.19 285.00,182.30 285.00,183.93 C285.00,185.55 284.55,187.16 284.00,187.50 C283.45,187.84 283.00,189.41 283.00,191.00 C283.00,192.59 282.55,194.16 282.00,194.50 C281.45,194.84 281.00,196.86 281.00,199.00 C281.00,201.14 280.55,203.16 280.00,203.50 C279.45,203.84 279.00,205.41 279.00,207.00 C279.00,208.59 278.55,210.16 278.00,210.50 C277.45,210.84 277.00,212.41 277.00,214.00 C277.00,215.59 276.55,217.16 276.00,217.50 C275.45,217.84 275.00,219.41 275.00,221.00 C275.00,222.59 274.55,224.16 274.00,224.50 C273.45,224.84 273.00,226.43 273.00,228.03 C273.00,231.12 274.18,231.25 276.40,228.50 C273.32,233.21 270.47,236.79 270.02,236.51 C269.06,235.92 269.83,232.09 271.29,230.23 C271.84,229.53 272.01,228.68 271.68,228.35 C271.35,228.02 271.76,226.12 272.59,224.12 C273.43,222.13 274.09,220.27 274.07,220.00 C274.04,219.73 274.26,218.60 274.55,217.50 C276.29,210.83 277.32,207.26 278.01,205.50 C278.30,204.76 278.91,202.49 279.91,198.45 L 279.91 198.44 C279.94,198.30 279.98,198.15 280.02,198.00 C280.51,195.97 281.10,193.52 281.79,190.61 L 281.79 190.61 C282.90,185.91 284.27,180.01 285.93,172.81 C286.35,170.98 286.74,169.33 287.04,168.00 C287.92,164.21 288.92,159.50 289.61,155.94 ZM 573.64 725.14 C574.12,723.19 567.43,722.87 545.42,722.64 C529.52,722.47 517.07,721.90 515.00,721.25 C513.40,720.75 510.26,719.82 507.44,719.01 C517.40,721.16 538.04,722.31 557.19,721.62 L 575.87 720.95 L 574.34 724.03 C574.17,724.37 573.93,724.75 573.64,725.14 ZM 631.61 813.16 C631.44,813.03 631.04,813.01 630.44,813.02 C628.62,813.03 621.30,818.75 609.41,829.43 C606.61,831.94 603.96,834.00 603.52,834.00 C603.03,834.00 599.95,836.53 595.62,840.39 L 595.77 840.25 C603.90,832.69 613.01,824.32 616.02,821.65 C619.04,818.98 623.88,814.60 626.79,811.90 C629.70,809.21 632.48,807.00 632.97,807.00 C634.05,807.00 633.15,810.30 631.61,813.16 ZM 466.67 955.52 C468.23,954.43 473.33,949.88 478.00,945.43 C484.94,938.80 492.52,931.71 499.49,925.30 C491.31,932.87 482.41,941.28 475.00,948.50 C458.74,964.34 451.39,970.62 446.49,972.87 C444.84,973.62 442.72,974.63 441.76,975.12 C439.08,976.48 434.65,976.17 430.90,974.35 C430.43,974.12 429.94,973.85 429.45,973.53 C430.70,973.97 432.25,974.00 434.97,974.00 C438.70,974.00 442.35,973.35 444.30,972.35 C447.54,970.69 457.17,963.57 461.49,959.64 C462.79,958.46 465.12,956.61 466.67,955.52 ZM 843.62 794.94 C842.07,798.20 840.36,802.24 838.28,807.50 C833.52,819.52 832.00,824.09 832.00,826.32 C832.00,827.24 831.55,828.00 831.00,828.00 C830.45,828.00 830.00,828.65 830.00,829.44 C830.00,830.24 829.16,832.37 828.12,834.19 C826.45,837.15 816.74,865.67 812.54,880.00 C810.79,885.95 810.32,887.18 807.18,894.00 C806.31,895.89 804.81,899.73 803.08,904.35 C804.43,900.31 805.62,896.54 806.47,893.56 C807.40,890.30 809.76,883.77 811.71,879.06 C813.67,874.35 818.12,861.95 821.61,851.50 C825.10,841.05 828.71,830.25 829.63,827.50 C830.55,824.75 832.78,819.35 834.58,815.50 C836.38,811.65 839.25,805.08 840.96,800.89 C841.84,798.73 842.69,796.81 843.62,794.94 ZM 921.04 671.62 C919.08,676.19 917.40,680.27 916.93,681.72 C915.24,686.82 908.84,698.86 905.87,702.50 C902.81,706.25 894.00,720.97 894.00,722.33 C894.00,723.08 892.88,725.00 891.50,726.59 C890.13,728.19 889.00,730.04 889.00,730.69 C889.00,731.35 888.20,732.47 887.22,733.19 C886.24,733.91 883.34,737.65 880.78,741.50 C879.55,743.35 878.30,745.20 877.04,747.06 C878.56,744.78 879.96,742.63 881.20,740.67 C883.56,736.91 888.99,728.50 893.26,721.97 C897.53,715.45 903.31,705.70 906.10,700.31 C908.89,694.92 911.60,690.25 912.11,689.93 C912.63,689.61 913.25,688.31 913.49,687.04 C913.74,685.77 914.58,684.00 915.37,683.11 C916.11,682.28 918.16,678.10 921.04,671.62 ZM 587.54 847.79 C585.00,850.17 582.35,852.70 579.73,855.25 C566.43,868.19 561.25,873.00 560.60,873.00 C560.27,873.00 558.15,874.80 555.88,877.00 C553.61,879.20 551.29,881.00 550.73,881.00 C550.32,881.00 548.76,882.11 546.87,883.71 C549.29,881.49 551.57,879.36 553.52,877.50 C560.38,870.94 573.61,859.35 577.19,856.75 C578.56,855.75 582.62,852.23 587.54,847.79 ZM 442.53 130.04 C442.91,129.03 443.29,128.01 443.66,127.00 C445.42,122.19 447.24,117.42 447.91,115.83 C447.97,115.72 448.02,115.61 448.07,115.50 C448.10,115.42 448.14,115.33 448.18,115.24 C448.56,114.37 448.92,113.39 449.25,112.31 C448.87,114.14 448.59,115.54 448.54,116.00 C448.19,118.99 446.77,123.59 444.91,127.74 C443.86,130.07 443.00,132.44 443.00,133.00 C443.00,133.57 442.55,134.92 442.00,136.01 L 440.00 139.99 C439.45,141.08 439.00,142.65 439.00,143.49 C439.00,144.32 438.55,145.00 438.00,145.00 C438.54,144.99 438.90,143.98 438.80,142.75 C438.73,141.76 440.44,136.13 442.53,130.04 ZM 558.85 235.32 C552.54,242.68 546.87,248.63 544.04,250.50 C542.37,251.60 541.00,252.81 541.00,253.20 C541.00,254.39 536.68,258.43 532.50,261.14 C530.75,262.27 528.01,264.40 524.78,267.08 C526.10,265.89 527.48,264.63 528.85,263.36 C534.71,257.93 541.31,252.26 543.53,250.76 L 543.53 250.76 C546.74,248.59 552.52,242.63 558.85,235.32 ZM 763.18 991.73 L 757.98 997.10 L 751.74 996.45 C749.73,996.25 747.85,995.98 746.07,995.65 C749.84,996.08 753.69,995.81 757.53,994.78 C759.39,994.28 761.28,993.26 763.18,991.73 ZM 790.59 936.70 C790.95,935.74 791.31,934.95 791.60,934.50 C792.41,933.21 794.23,928.81 796.36,923.20 C795.24,926.48 794.27,929.45 793.58,931.73 C792.37,935.70 791.07,939.26 790.69,939.64 C790.31,940.02 790.00,941.16 790.00,942.17 C790.00,943.17 789.55,944.00 789.00,944.00 C788.88,944.00 788.77,944.05 788.67,944.15 C788.74,943.81 788.81,943.46 788.88,943.11 C789.33,940.84 789.98,938.43 790.59,936.70 ZM 363.15 503.73 C362.01,507.32 361.37,511.30 360.99,516.16 C360.57,521.47 359.93,526.31 359.56,526.90 C359.52,526.97 359.48,527.06 359.45,527.16 C359.33,519.16 360.57,511.06 363.15,503.73 ZM 941.67 531.09 C942.25,533.61 942.80,535.81 943.15,536.89 C943.79,538.91 944.15,550.46 944.23,563.09 C943.91,551.99 943.02,540.23 941.67,531.09 ZM 451.99 674.94 C457.66,671.57 459.14,671.07 460.66,672.02 C458.86,670.89 455.86,672.37 442.12,681.18 C440.68,682.10 438.72,682.89 437.78,682.93 C437.33,682.95 436.43,683.18 435.34,683.55 C438.50,682.16 441.00,680.80 441.47,680.05 C441.83,679.47 442.80,679.00 443.63,679.00 C444.47,679.00 448.23,677.17 451.99,674.94 ZM 944.13 582.54 C943.96,591.74 943.61,598.79 943.10,599.30 C942.86,599.54 942.64,600.08 942.47,600.80 C942.60,598.88 942.79,596.28 943.00,593.42 C943.54,590.72 943.91,586.96 944.13,582.54 ZM 387.28 475.00 C390.68,472.57 393.60,471.00 395.25,471.00 C395.78,471.00 396.35,470.91 396.89,470.75 C393.60,472.63 388.44,474.99 387.28,475.00 ZM 359.92 534.40 C360.99,540.58 363.19,548.88 365.19,552.97 C362.47,547.38 360.71,541.02 359.92,534.40 ZM 866.53 762.13 C861.41,769.29 856.14,776.39 850.86,783.26 C853.09,780.11 855.88,776.37 859.50,771.61 C861.81,768.57 864.19,765.36 866.53,762.13 ZM 931.89 493.92 C925.69,478.05 916.42,460.80 907.08,448.50 C916.43,460.82 925.91,478.26 931.89,493.92 ZM 515.67 274.89 C515.84,274.78 516.07,274.61 516.36,274.38 C514.65,275.91 512.94,277.48 511.27,279.05 C511.12,279.19 510.97,279.33 510.82,279.47 C510.94,279.33 511.06,279.20 511.16,279.07 C512.25,277.68 514.28,275.80 515.67,274.89 ZM 377.16 483.63 C377.10,483.69 377.03,483.75 376.97,483.82 C371.22,489.49 367.52,494.01 365.10,498.86 C365.42,498.18 365.74,497.50 366.08,496.83 C367.81,493.46 372.15,488.47 377.16,483.63 ZM 280.85 221.72 C282.91,218.42 285.71,214.16 287.68,211.37 C288.55,210.14 289.36,208.95 290.04,207.93 C289.22,209.20 288.22,210.72 287.13,212.33 C285.52,214.70 283.16,218.23 280.85,221.72 ZM 788.00 946.87 C787.94,948.31 787.35,950.09 786.63,950.92 C786.00,951.65 784.58,954.50 783.25,957.68 L 783.27 957.63 C784.57,954.48 785.90,951.69 786.44,951.00 C786.86,950.48 787.44,948.87 788.00,946.87 ZM 780.28 965.00 C777.27,972.15 774.59,977.38 771.59,981.80 C774.49,977.30 777.39,971.69 780.28,965.00 ZM 941.99 605.90 C941.91,608.20 941.50,610.19 941.00,610.50 C940.78,610.64 940.57,611.06 940.40,611.66 C940.55,611.08 940.73,610.65 940.92,610.45 C941.26,610.10 941.67,608.29 941.99,605.90 ZM 730.80 989.73 C728.60,988.27 726.52,986.54 724.47,984.51 C723.29,983.34 721.98,981.82 720.73,980.20 C723.82,984.08 727.21,987.27 730.80,989.73 ZM 569.01 729.50 C570.02,728.57 570.84,727.87 571.33,727.50 C571.67,727.25 571.97,727.02 572.24,726.79 C571.25,727.82 570.09,728.81 569.01,729.50 ZM 928.45 654.30 C927.04,657.88 925.39,661.75 923.37,666.31 C924.92,662.72 926.63,658.68 928.45,654.30 ZM 506.14 283.21 C505.49,283.65 504.94,283.98 504.52,284.17 C504.40,284.23 504.27,284.29 504.15,284.35 C504.59,284.08 505.08,283.80 505.59,283.52 C505.77,283.43 505.95,283.32 506.14,283.21 ZM 522.62 772.59 C520.00,775.20 515.69,779.06 512.66,781.51 C515.69,779.06 520.00,775.20 522.62,772.59 C524.41,770.81 527.05,768.32 529.55,766.04 C527.04,768.34 524.41,770.82 522.62,772.59 ZM 716.36 973.84 C715.52,972.39 715.00,971.22 715.00,970.63 C715.00,971.14 715.54,972.37 716.36,973.84 ZM 422.26 966.87 C420.78,965.11 419.33,963.17 417.98,961.13 C419.30,963.11 420.73,965.04 422.26,966.87 ZM 408.74 465.66 C409.04,465.59 409.33,465.51 409.63,465.44 C408.33,465.77 407.09,466.12 405.94,466.46 C406.82,466.19 407.76,465.92 408.74,465.66 ZM 625.07 821.97 C623.85,823.74 623.00,825.20 623.00,825.63 C623.00,825.19 623.85,823.74 625.07,821.97 ZM 451.97 97.92 C451.98,97.75 451.98,97.59 451.99,97.45 C451.99,97.20 452.00,96.95 452.02,96.71 C452.01,96.89 452.00,97.07 452.00,97.25 C452.00,97.44 451.99,97.66 451.97,97.92 ZM 447.43 464.70 L 447.47 464.71 C444.23,463.96 440.95,463.41 437.72,463.05 C440.94,463.40 444.20,463.96 447.43,464.70 ZM 437.25 145.43 L 437.25 145.43 C437.43,145.17 437.69,145.00 437.99,145.00 C437.69,145.00 437.43,145.17 437.25,145.43 Z" fill="rgb(253,203,186)"/>
<path d="M 0.00 528.00 L 0.00 0.00 L 488.00 0.00 L 976.00 0.00 L 976.00 528.00 L 976.00 1056.00 L 488.00 1056.00 L 0.00 1056.00 L 0.00 528.00 ZM 603.43 1043.03 C608.77,1040.45 615.69,1033.54 621.83,1024.66 C627.55,1016.38 638.52,997.79 641.99,990.50 C643.29,987.75 644.67,985.28 645.04,985.00 C645.41,984.72 647.64,980.90 649.98,976.50 C667.23,944.12 667.92,942.84 673.08,933.61 C675.51,929.27 679.39,922.20 681.70,917.90 C684.01,913.61 688.40,906.00 691.45,900.99 C694.50,895.98 697.00,891.68 697.00,891.42 C697.00,891.17 699.25,887.34 702.00,882.90 C704.75,878.47 707.00,874.67 707.00,874.45 C707.00,874.24 710.83,868.19 715.50,861.00 C720.17,853.81 724.02,847.61 724.04,847.22 C724.06,846.82 725.12,845.22 726.39,843.66 C728.22,841.43 728.84,841.14 729.30,842.33 C729.86,843.80 725.84,858.72 723.94,862.24 C723.42,863.19 723.00,865.30 723.00,866.93 C723.00,868.55 722.55,870.16 722.00,870.50 C721.45,870.84 721.00,872.19 721.00,873.50 C721.00,874.81 720.55,876.16 720.00,876.50 C719.45,876.84 719.00,878.41 719.00,880.00 C719.00,881.59 718.55,883.16 718.00,883.50 C717.45,883.84 717.00,885.41 717.00,887.00 C717.00,888.59 716.55,890.16 716.00,890.50 C715.45,890.84 715.00,893.03 715.00,895.36 C715.00,897.69 714.59,900.03 714.09,900.55 C713.59,901.07 712.93,903.97 712.64,907.00 C712.34,910.03 711.64,915.88 711.09,920.00 C708.98,935.61 708.70,943.16 709.93,951.81 C710.60,956.59 711.57,961.28 712.08,962.24 C712.59,963.19 713.00,964.85 713.00,965.93 C713.00,967.00 713.45,968.16 714.00,968.50 C714.55,968.84 715.00,969.80 715.00,970.63 C715.00,972.53 720.46,980.53 724.47,984.51 C731.84,991.81 739.57,995.20 751.74,996.45 L 757.98 997.10 L 764.91 989.95 C772.02,982.63 776.38,975.08 782.51,959.50 C784.02,955.65 785.88,951.79 786.63,950.92 C787.38,950.05 788.00,948.14 788.00,946.67 C788.00,945.20 788.45,944.00 789.00,944.00 C789.55,944.00 790.00,943.17 790.00,942.17 C790.00,941.16 790.31,940.02 790.69,939.64 C791.07,939.26 792.37,935.70 793.58,931.73 C796.53,922.00 804.62,899.57 807.18,894.00 C810.32,887.18 810.79,885.95 812.54,880.00 C816.74,865.67 826.45,837.15 828.12,834.19 C829.16,832.37 830.00,830.24 830.00,829.44 C830.00,828.65 830.45,828.00 831.00,828.00 C831.55,828.00 832.00,827.24 832.00,826.32 C832.00,824.09 833.52,819.52 838.28,807.50 C843.16,795.16 845.96,789.58 849.65,784.82 C860.41,770.92 871.12,756.02 880.78,741.50 C883.34,737.65 886.24,733.91 887.22,733.19 C888.20,732.47 889.00,731.35 889.00,730.69 C889.00,730.04 890.13,728.19 891.50,726.59 C892.88,725.00 894.00,723.08 894.00,722.33 C894.00,720.97 902.81,706.25 905.87,702.50 C908.84,698.86 915.24,686.82 916.93,681.72 C917.57,679.78 920.36,673.09 923.13,666.85 C929.44,652.66 932.12,645.18 935.44,632.50 C936.89,627.00 938.50,621.72 939.03,620.76 C939.57,619.81 940.00,617.25 940.00,615.07 C940.00,612.90 940.45,610.84 941.00,610.50 C941.55,610.16 942.00,607.75 942.00,605.14 C942.00,602.53 942.49,599.91 943.10,599.30 C944.60,597.80 944.64,541.57 943.15,536.89 C942.55,535.03 941.35,529.90 940.47,525.50 C937.61,511.12 937.09,509.05 933.97,499.72 C928.30,482.72 917.61,462.36 907.08,448.50 C896.14,434.09 874.00,413.73 863.68,408.58 C860.83,407.16 855.35,404.29 851.50,402.20 C847.65,400.12 841.80,397.38 838.50,396.11 C832.62,393.85 830.28,392.93 825.75,391.08 C824.51,390.58 822.38,389.87 821.00,389.52 C819.62,389.16 816.92,388.42 815.00,387.87 C809.66,386.34 804.00,384.97 798.75,383.94 C796.14,383.42 791.64,382.53 788.75,381.96 C762.85,376.83 750.01,375.40 717.00,373.93 C691.33,372.78 662.50,373.57 642.00,375.97 C624.22,378.05 617.30,378.95 611.00,379.98 C607.42,380.58 602.81,381.32 600.74,381.63 C598.68,381.95 596.74,382.61 596.43,383.11 C596.13,383.60 594.59,384.00 593.00,384.00 C591.41,384.00 589.84,384.45 589.50,385.00 C589.16,385.55 587.81,386.00 586.50,386.00 C585.19,386.00 583.84,386.45 583.50,387.00 C583.16,387.55 581.81,388.00 580.50,388.00 C579.19,388.00 577.84,388.45 577.50,389.00 C577.16,389.55 576.09,390.00 575.13,390.00 C574.16,390.00 570.94,391.17 567.97,392.61 C564.99,394.04 561.65,395.64 560.53,396.16 C558.08,397.30 552.27,400.82 548.70,403.34 C547.26,404.35 545.66,404.91 545.14,404.59 C544.62,404.27 540.03,398.09 534.94,390.86 C523.88,375.16 516.50,366.69 510.18,362.44 C504.66,358.73 494.66,355.00 490.24,355.00 C488.52,355.00 486.82,354.53 486.47,353.94 C486.03,353.24 476.82,352.95 458.70,353.07 C441.76,353.18 431.46,352.88 431.26,352.27 C430.66,350.47 450.98,331.40 488.41,298.60 C495.89,292.05 502.00,286.38 502.00,286.01 C502.00,285.63 503.14,284.80 504.52,284.17 C505.91,283.54 508.95,281.24 511.27,279.05 C519.40,271.42 528.53,263.71 532.50,261.14 C536.68,258.43 541.00,254.39 541.00,253.20 C541.00,252.81 542.37,251.60 544.04,250.50 C550.97,245.93 574.97,216.82 583.62,202.50 C586.48,197.76 594.00,181.13 594.00,179.54 C594.00,179.14 594.64,177.38 595.42,175.65 C598.98,167.74 600.03,149.11 597.55,138.00 C594.91,126.20 594.31,124.34 590.71,116.89 C585.01,105.09 577.45,99.00 568.49,99.00 C563.78,99.00 562.01,99.57 557.20,102.64 C550.51,106.92 551.85,105.75 513.19,141.00 C496.61,156.12 480.85,170.30 478.19,172.50 C475.52,174.70 469.10,180.17 463.92,184.66 C458.74,189.14 448.88,197.56 442.00,203.37 C410.89,229.63 401.19,238.05 393.21,245.75 C385.07,253.60 382.00,255.52 382.00,252.75 C382.01,252.06 382.90,250.04 383.99,248.25 C385.08,246.47 388.50,240.17 391.60,234.25 C394.69,228.34 398.94,220.57 401.03,217.00 C410.51,200.77 437.00,148.68 437.00,146.26 C437.00,145.57 437.45,145.00 438.00,145.00 C438.55,145.00 439.00,144.32 439.00,143.49 C439.00,142.65 439.45,141.08 440.00,139.99 C440.55,138.89 441.45,137.11 442.00,136.01 C442.55,134.92 443.00,133.57 443.00,133.00 C443.00,132.44 443.86,130.07 444.91,127.74 C446.77,123.59 448.19,118.99 448.54,116.00 C448.64,115.18 449.45,111.26 450.36,107.30 C451.26,103.34 452.00,98.82 452.00,97.25 C452.00,95.68 452.48,93.92 453.07,93.33 C454.67,91.73 453.68,73.63 451.57,66.00 C448.36,54.39 442.86,44.05 436.41,37.48 C427.39,28.30 423.54,26.75 409.41,26.61 L 397.74 26.50 L 392.31 32.50 C387.11,38.25 380.00,47.98 380.00,49.36 C380.00,49.72 378.51,52.15 376.69,54.76 C372.05,61.39 362.59,77.65 356.47,89.50 C349.30,103.37 342.90,115.31 342.00,116.50 C341.58,117.05 338.78,122.22 335.77,128.00 C330.08,138.93 325.24,147.78 324.02,149.50 C323.63,150.05 320.93,154.97 318.04,160.43 C312.76,170.38 311.51,172.57 305.00,183.34 C303.08,186.52 301.05,189.89 300.49,190.81 C299.93,191.74 297.80,195.10 295.74,198.27 C293.68,201.44 292.00,204.31 292.00,204.64 C292.00,204.97 290.06,208.00 287.68,211.37 C285.30,214.74 281.70,220.27 279.67,223.65 C275.34,230.86 273.00,232.40 273.00,228.03 C273.00,226.43 273.45,224.84 274.00,224.50 C274.55,224.16 275.00,222.59 275.00,221.00 C275.00,219.41 275.45,217.84 276.00,217.50 C276.55,217.16 277.00,215.59 277.00,214.00 C277.00,212.41 277.45,210.84 278.00,210.50 C278.55,210.16 279.00,208.59 279.00,207.00 C279.00,205.41 279.45,203.84 280.00,203.50 C280.55,203.16 281.00,201.14 281.00,199.00 C281.00,196.86 281.45,194.84 282.00,194.50 C282.55,194.16 283.00,192.59 283.00,191.00 C283.00,189.41 283.45,187.84 284.00,187.50 C284.55,187.16 285.00,185.55 285.00,183.93 C285.00,182.30 285.42,180.19 285.93,179.24 C286.43,178.28 287.39,173.00 288.06,167.50 C288.72,162.00 289.70,155.02 290.24,152.00 C291.71,143.67 292.27,122.96 291.13,119.00 C290.58,117.07 289.58,113.25 288.91,110.50 C284.27,91.34 268.14,77.00 251.25,77.00 C242.65,77.00 238.29,78.86 233.62,84.50 C229.08,89.99 225.00,95.63 225.00,96.43 C225.00,96.71 223.93,99.32 222.62,102.22 C217.50,113.59 216.00,117.31 216.00,118.64 C216.00,119.40 215.60,120.81 215.12,121.76 C214.63,122.72 213.73,124.74 213.12,126.25 C212.50,127.76 211.50,130.24 210.88,131.75 C210.27,133.26 209.37,135.28 208.88,136.24 C208.40,137.19 208.00,138.66 208.00,139.50 C208.00,140.34 207.60,141.81 207.12,142.76 C206.63,143.72 205.73,145.74 205.12,147.25 C204.50,148.76 203.57,151.01 203.04,152.25 C202.52,153.49 200.44,159.68 198.43,166.00 C194.74,177.60 193.50,181.06 191.88,184.24 C191.40,185.19 191.00,186.85 191.00,187.93 C191.00,189.00 190.55,190.16 190.00,190.50 C189.45,190.84 189.00,192.19 189.00,193.50 C189.00,194.81 188.55,196.16 188.00,196.50 C187.45,196.84 187.00,198.00 187.00,199.07 C187.00,200.15 186.60,201.81 186.12,202.76 C184.54,205.85 183.13,209.40 181.64,214.00 C180.84,216.48 179.51,220.30 178.69,222.50 C177.87,224.70 176.46,228.98 175.56,232.00 C174.66,235.02 173.49,238.51 172.96,239.75 C172.43,240.99 171.50,243.24 170.88,244.75 C170.27,246.26 169.37,248.28 168.88,249.24 C168.40,250.19 168.00,251.43 168.00,252.00 C168.00,253.24 166.12,257.54 157.08,277.00 C152.11,287.68 149.15,291.98 136.15,307.35 C133.75,310.18 130.70,314.08 129.36,316.00 C128.02,317.92 124.93,322.20 122.49,325.50 C120.05,328.80 115.45,335.27 112.27,339.87 C109.10,344.47 104.93,350.51 103.00,353.28 C101.07,356.06 99.05,359.05 98.50,359.93 C97.95,360.81 96.26,363.14 94.75,365.11 C93.24,367.08 92.00,369.06 92.00,369.52 C92.00,369.97 91.25,371.17 90.34,372.18 C89.43,373.19 88.19,374.86 87.59,375.90 C86.99,376.94 84.88,380.20 82.90,383.15 C78.29,390.02 75.24,395.21 67.70,409.00 C66.05,412.02 63.86,415.69 62.85,417.15 C61.83,418.61 61.00,420.07 61.00,420.39 C61.00,420.71 59.70,423.66 58.11,426.94 C56.52,430.23 54.42,435.52 53.45,438.71 C52.48,441.89 51.31,444.93 50.84,445.45 C50.38,445.97 50.00,447.63 50.00,449.14 C50.00,450.65 49.55,452.16 49.00,452.50 C48.45,452.84 48.00,454.41 48.00,456.00 C48.00,457.59 47.55,459.16 47.00,459.50 C46.45,459.84 46.00,461.41 46.00,463.00 C46.00,464.59 45.55,466.16 45.00,466.50 C44.45,466.84 44.00,468.64 44.00,470.50 C44.00,472.36 43.62,474.12 43.15,474.41 C41.52,475.42 40.59,490.63 40.65,515.50 C40.70,540.57 41.48,552.56 43.12,553.58 C43.60,553.87 44.00,555.64 44.00,557.50 C44.00,559.36 44.45,561.16 45.00,561.50 C45.55,561.84 46.00,563.19 46.00,564.50 C46.00,565.81 46.45,567.16 47.00,567.50 C47.55,567.84 48.00,569.19 48.00,570.50 C48.00,571.81 48.45,573.16 49.00,573.50 C49.55,573.84 50.00,575.19 50.00,576.50 C50.00,577.81 50.45,579.16 51.00,579.50 C51.55,579.84 52.00,581.00 52.00,582.07 C52.00,583.15 52.41,584.81 52.91,585.76 C53.41,586.72 55.53,591.55 57.61,596.50 C59.70,601.45 62.78,607.47 64.45,609.87 C66.13,612.27 67.95,614.97 68.50,615.87 C69.05,616.77 70.51,618.93 71.75,620.68 C72.99,622.43 74.00,624.15 74.00,624.50 C74.00,625.58 83.09,635.97 90.98,643.93 C98.77,651.77 106.30,658.00 108.01,658.00 C108.55,658.00 109.00,658.36 109.00,658.80 C109.00,661.53 138.01,677.19 152.00,682.00 C153.93,682.66 156.40,683.56 157.50,683.99 C158.60,684.42 161.52,685.33 164.00,686.02 C170.89,687.92 177.39,690.24 178.45,691.17 C178.97,691.62 181.08,692.00 183.14,692.00 C185.20,692.00 187.16,692.45 187.50,693.00 C187.84,693.55 190.54,694.00 193.50,694.00 C196.46,694.00 199.16,694.45 199.50,695.00 C199.84,695.55 202.76,696.00 206.00,696.00 C209.24,696.00 212.16,696.45 212.50,697.00 C212.84,697.55 217.34,698.00 222.56,698.00 C227.75,698.00 232.00,698.42 232.00,698.93 C232.00,699.92 242.92,700.81 262.77,701.44 C269.53,701.65 276.46,702.31 278.17,702.91 C282.47,704.41 333.89,704.39 337.68,702.89 C339.23,702.27 345.00,701.64 350.50,701.47 C356.00,701.31 364.77,700.65 370.00,700.01 C375.23,699.37 381.98,698.61 385.00,698.33 C388.02,698.05 390.93,697.41 391.45,696.91 C391.97,696.41 394.31,696.00 396.64,696.00 C398.97,696.00 401.16,695.55 401.50,695.00 C401.84,694.45 403.86,694.00 406.00,694.00 C408.14,694.00 410.16,693.55 410.50,693.00 C410.84,692.45 412.22,692.00 413.57,692.00 C414.92,692.00 416.81,691.62 417.76,691.15 C418.72,690.68 421.08,689.62 423.00,688.80 C424.92,687.98 428.65,686.34 431.28,685.15 C433.90,683.97 436.83,682.97 437.78,682.93 C438.72,682.89 440.68,682.10 442.12,681.18 C455.86,672.37 458.86,670.89 460.66,672.02 C462.36,673.08 468.96,682.12 473.36,689.41 C474.39,691.11 475.54,692.72 475.91,693.00 C476.29,693.28 479.22,696.76 482.41,700.75 C489.73,709.88 498.34,716.43 505.80,718.54 C508.94,719.43 513.08,720.65 515.00,721.25 C517.07,721.90 529.52,722.47 545.42,722.64 C574.32,722.94 576.80,723.41 571.33,727.50 C569.87,728.60 565.48,732.71 561.58,736.63 C554.40,743.86 544.01,753.43 533.52,762.50 C530.34,765.25 525.43,769.79 522.62,772.59 C519.80,775.39 515.03,779.65 512.00,782.05 C508.98,784.45 504.44,788.23 501.93,790.45 C496.03,795.67 493.04,798.14 490.35,800.00 C489.16,800.83 484.61,804.65 480.24,808.50 C475.88,812.35 470.37,817.08 468.01,819.00 C454.70,829.84 443.85,840.87 433.80,853.77 C427.62,861.70 422.00,870.55 422.00,872.33 C422.00,873.11 421.34,874.31 420.52,874.98 C419.20,876.08 415.54,883.18 412.78,890.00 C412.22,891.38 411.37,893.28 410.88,894.24 C410.40,895.19 410.00,897.08 410.00,898.43 C410.00,899.78 409.62,901.12 409.15,901.41 C408.20,901.99 406.71,914.72 406.68,922.50 C406.65,928.43 407.83,937.69 408.96,940.50 C409.41,941.60 410.36,944.53 411.09,947.00 C414.18,957.56 423.89,970.96 430.90,974.35 C434.65,976.17 439.08,976.48 441.76,975.12 C442.72,974.63 444.84,973.62 446.49,972.87 C451.39,970.62 458.74,964.34 475.00,948.50 C492.80,931.15 519.25,906.90 523.53,904.00 C525.98,902.34 536.64,893.09 544.56,885.75 C547.39,883.14 550.16,881.00 550.73,881.00 C551.29,881.00 553.61,879.20 555.88,877.00 C558.15,874.80 560.27,873.00 560.60,873.00 C561.25,873.00 566.43,868.19 579.73,855.25 C590.83,844.44 602.52,834.00 603.52,834.00 C603.96,834.00 606.61,831.94 609.41,829.43 C621.30,818.75 628.62,813.03 630.44,813.02 C632.22,813.00 632.18,813.21 629.92,815.75 C626.85,819.18 623.00,824.68 623.00,825.63 C623.00,826.02 622.38,827.05 621.62,827.92 C620.86,828.79 619.17,831.53 617.85,834.00 C616.53,836.47 613.81,841.05 611.79,844.18 C608.55,849.18 606.74,852.36 599.88,864.99 C598.99,866.63 597.80,868.54 597.24,869.24 C594.55,872.55 572.00,916.73 572.00,918.69 C572.00,919.41 571.55,920.00 571.00,920.00 C570.45,920.00 570.00,920.81 570.00,921.80 C570.00,922.79 569.63,924.03 569.18,924.55 C568.22,925.66 563.73,936.70 561.87,942.50 C561.17,944.70 560.23,946.93 559.80,947.45 C559.36,947.97 559.00,949.63 559.00,951.14 C559.00,952.65 558.55,954.16 558.00,954.50 C557.45,954.84 557.00,956.35 557.00,957.86 C557.00,959.37 556.60,961.03 556.10,961.55 C554.61,963.13 553.82,970.68 553.35,987.90 C553.06,998.59 553.27,1004.67 553.95,1005.35 C554.53,1005.93 555.00,1007.41 555.00,1008.64 C555.00,1009.87 555.45,1011.16 556.00,1011.50 C556.55,1011.84 557.00,1013.22 557.00,1014.56 C557.00,1015.90 557.45,1017.00 558.00,1017.00 C558.55,1017.00 559.00,1017.66 559.00,1018.48 C559.00,1022.18 571.05,1036.28 576.52,1038.96 C578.16,1039.77 580.65,1041.20 582.06,1042.15 C584.37,1043.70 587.59,1044.30 596.43,1044.83 C598.05,1044.92 601.20,1044.11 603.43,1043.03 ZM 537.60 612.16 C532.12,609.18 528.58,605.14 529.55,602.95 C529.90,602.15 533.73,598.35 538.05,594.50 C551.55,582.48 557.00,572.71 557.00,560.53 C557.00,553.68 556.75,552.86 553.00,547.24 C550.80,543.94 549.00,540.60 549.00,539.81 C549.00,539.02 550.30,537.13 551.89,535.61 C553.48,534.08 556.26,529.63 558.06,525.71 C561.45,518.36 565.92,511.14 568.31,509.16 C570.88,507.02 585.28,500.00 587.08,500.00 C588.07,500.00 589.16,499.55 589.50,499.00 C589.84,498.45 591.64,498.00 593.50,498.00 C595.36,498.00 597.16,497.55 597.50,497.00 C597.84,496.45 600.31,496.00 603.00,496.00 C605.69,496.00 608.16,496.45 608.50,497.00 C608.84,497.55 610.50,498.00 612.19,498.00 C618.91,498.00 633.38,509.73 637.78,518.75 C638.66,520.54 639.74,522.00 640.19,522.00 C640.63,522.00 641.00,522.87 641.00,523.94 C641.00,525.01 641.45,526.16 642.00,526.50 C642.55,526.84 643.00,528.41 643.00,530.00 C643.00,531.59 643.45,533.16 644.00,533.50 C646.24,534.88 644.68,563.71 642.00,570.50 C638.39,579.65 635.08,584.86 629.08,590.83 C625.40,594.50 621.66,598.05 620.76,598.73 C618.77,600.23 609.07,605.77 607.00,606.59 C606.17,606.91 604.38,607.65 603.00,608.22 C595.70,611.27 593.11,611.93 585.50,612.69 C582.75,612.96 580.07,613.59 579.55,614.09 C579.03,614.59 570.48,614.96 560.55,614.91 C542.99,614.82 542.37,614.75 537.60,612.16 ZM 395.55 579.08 C395.18,578.49 394.05,578.00 393.04,578.00 C386.42,578.00 370.35,563.55 365.19,552.97 C361.99,546.41 358.24,529.04 359.56,526.90 C359.93,526.31 360.57,521.47 360.99,516.16 C362.11,501.93 365.43,495.21 376.97,483.82 C381.88,478.97 386.52,475.00 387.28,475.00 C388.78,475.00 397.11,470.98 399.21,469.25 C401.61,467.26 413.46,464.06 422.40,462.98 C435.78,461.37 453.03,464.67 466.00,471.33 C471.97,474.40 472.25,476.77 467.18,481.13 C460.79,486.61 454.01,495.62 449.81,504.20 C447.83,508.25 447.26,520.42 449.00,521.50 C449.55,521.84 450.00,522.80 450.00,523.63 C450.00,524.46 451.35,527.10 453.00,529.50 C456.48,534.56 456.80,537.50 454.03,538.98 C451.40,540.39 447.63,547.04 444.95,555.00 C443.74,558.58 441.61,562.73 440.20,564.24 C437.76,566.86 426.70,574.00 425.08,574.00 C424.66,574.00 422.78,574.76 420.91,575.70 C414.72,578.78 396.84,581.17 395.55,579.08 Z" fill="rgb(254,254,254)"/>
</g>
</svg>